<?xml version="1.0" encoding="UTF-8" standalone="no"?><!-- Generator: Gravit.io --><svg xmlns="http://www.w3.org/2000/svg" xmlns:xlink="http://www.w3.org/1999/xlink" style="isolation:isolate" viewBox="271.085 91.37 67.249 67.25" width="67.249pt" height="67.25pt"><path d=" M 336.835 91.37 L 272.585 91.37 C 271.756 91.37 271.085 92.041 271.085 92.87 L 271.085 157.12 C 271.085 157.948 271.756 158.62 272.585 158.62 L 297.151 158.62 C 297.98 158.62 298.651 157.948 298.651 157.12 C 298.651 156.292 297.98 155.62 297.151 155.62 L 274.085 155.62 L 274.085 137.14 L 286.416 137.14 C 287.245 137.14 287.916 136.468 287.916 135.64 C 287.916 134.812 287.245 134.14 286.416 134.14 L 274.085 134.14 L 274.085 94.37 L 304.852 94.37 L 304.852 113.525 C 304.852 114.354 305.524 115.025 306.352 115.025 C 307.18 115.025 307.852 114.354 307.852 113.525 L 307.852 94.37 L 335.335 94.37 L 335.335 124.249 L 295.873 124.249 C 295.044 124.249 294.373 124.92 294.373 125.749 C 294.373 126.577 295.044 127.249 295.873 127.249 L 335.335 127.249 L 335.335 155.62 L 317.876 155.62 L 308.738 142.317 C 308.269 141.635 307.337 141.462 306.652 141.93 C 305.969 142.399 305.797 143.332 306.265 144.016 L 315.85 157.969 C 316.129 158.376 316.592 158.619 317.086 158.619 L 336.834 158.619 C 337.662 158.619 338.334 157.947 338.334 157.119 L 338.334 92.869 C 338.335 92.041 337.663 91.37 336.835 91.37 Z " fill="rgb(47,72,88)"/></svg>