<?xml version="1.0" encoding="UTF-8" standalone="no"?><!-- Generator: Gravit.io --><svg xmlns="http://www.w3.org/2000/svg" xmlns:xlink="http://www.w3.org/1999/xlink" style="isolation:isolate" viewBox="735.898 229.271 53.659 89.335" width="53.659pt" height="89.335pt"><g><path d=" M 770.486 294.383 L 785.479 270.275 C 785.528 270.197 785.569 270.115 785.601 270.03 C 788.19 265.808 789.557 260.985 789.557 256.061 C 789.557 241.289 777.539 229.271 762.767 229.271 C 747.995 229.271 735.976 241.289 735.976 256.061 C 735.976 260.986 737.345 265.811 739.936 270.036 C 739.966 270.11 740.001 270.182 740.043 270.252 L 754.498 294.443 C 743.277 296.029 735.898 300.643 735.898 306.24 C 735.898 313.175 747.683 318.606 762.727 318.606 C 777.771 318.606 789.556 313.174 789.556 306.24 C 789.557 300.617 781.834 295.9 770.486 294.383 Z  M 742.629 268.685 C 740.239 264.881 738.976 260.516 738.976 256.061 C 738.976 242.943 749.648 232.271 762.767 232.271 C 775.885 232.271 786.557 242.943 786.557 256.061 C 786.557 260.518 785.294 264.883 782.905 268.685 C 782.855 268.765 782.814 268.848 782.781 268.934 L 766.941 294.401 C 766.703 294.766 766.656 294.849 766.365 295.327 L 762.365 301.759 L 742.763 268.955 C 742.728 268.862 742.683 268.771 742.629 268.685 Z  M 762.728 315.606 C 748.685 315.606 738.899 310.669 738.899 306.24 C 738.899 302.22 746.269 298.432 756.182 297.259 L 761.052 305.41 C 761.321 305.859 761.803 306.136 762.326 306.14 C 762.33 306.14 762.335 306.14 762.339 306.14 C 762.857 306.14 763.339 305.872 763.613 305.432 L 768.733 297.2 C 778.804 298.291 786.556 302.175 786.556 306.24 C 786.557 310.67 776.771 315.606 762.728 315.606 Z " fill="rgb(47,72,88)"/><path d=" M 772.469 256.061 C 772.469 250.69 768.099 246.32 762.728 246.32 C 757.357 246.32 752.987 250.69 752.987 256.061 C 752.987 261.432 757.357 265.802 762.728 265.802 C 768.099 265.802 772.469 261.432 772.469 256.061 Z  M 755.987 256.061 C 755.987 252.344 759.011 249.32 762.728 249.32 C 766.445 249.32 769.469 252.344 769.469 256.061 C 769.469 259.778 766.446 262.802 762.728 262.802 C 759.01 262.802 755.987 259.778 755.987 256.061 Z " fill="rgb(47,72,88)"/></g></svg>