<?xml version="1.0" encoding="UTF-8" standalone="no"?><!-- Generator: Gravit.io --><svg xmlns="http://www.w3.org/2000/svg" xmlns:xlink="http://www.w3.org/1999/xlink" style="isolation:isolate" viewBox="0 0 800 250" width="800pt" height="250pt"><g><path d=" M 127.691 224.793 C 95.182 222.612 65.61 204.477 48.659 176.328 C 42.189 165.584 37.587 152.904 35.637 140.449 C 34.281 131.78 34.127 121.199 35.233 112.511 C 36.341 103.807 38.892 94.206 42.149 86.481 C 43.617 82.998 46.782 76.611 47.377 75.929 L 47.815 75.426 L 92.634 75.805 C 117.284 76.014 139.2 76.28 141.336 76.397 C 146.756 76.694 150.705 77.568 155.208 79.466 C 172.746 86.859 182.657 105.651 178.892 124.372 C 176.506 136.232 168.437 146.802 157.624 152.23 C 154.889 153.603 153.526 154.116 149.348 155.343 C 147.462 155.897 145.871 156.399 145.811 156.458 C 145.721 156.548 171.732 193.927 172.796 195.237 C 173.133 195.652 173.191 195.628 176.116 193.832 C 189.512 185.608 199.839 174.429 206.635 160.793 C 210.835 152.369 213.429 143.545 214.597 133.713 C 214.98 130.487 215.105 122.622 214.828 119.121 C 213.831 106.492 210.165 94.778 203.873 84.117 C 195.714 70.293 183.403 59.02 168.972 52.16 C 160.591 48.176 151.612 45.681 142.071 44.684 C 138.87 44.349 130.214 44.342 127.061 44.671 C 117.496 45.67 109.008 48.003 100.191 52.056 L 97.357 53.358 L 83.607 53.232 C 76.045 53.163 68.778 53.105 67.459 53.105 L 65.061 53.103 L 65.57 52.548 C 66.654 51.366 71.454 47.284 74.056 45.333 C 95.317 29.384 121.226 22.486 147.352 25.82 C 166.376 28.248 183.83 35.96 199.17 48.717 C 201.873 50.965 208.55 57.642 210.798 60.345 C 225.02 77.446 232.875 97.002 234.326 118.914 C 236.155 146.532 225.613 174.554 205.728 194.929 C 194.923 206.001 181.664 214.477 167.375 219.448 C 164.684 220.384 164.545 220.411 164.213 220.052 C 164.022 219.846 158.576 212.167 152.111 202.988 C 132.156 174.657 103.51 134.065 102.947 133.321 L 102.412 132.613 L 117.518 132.768 C 133.749 132.934 135.68 132.86 139.359 131.929 C 146.957 130.006 152.09 125.429 153.849 119.007 C 154.409 116.963 154.364 113.309 153.752 111.147 C 151.751 104.073 145.306 99.116 136.711 98.038 C 135.095 97.836 66.608 97.099 61.363 97.228 L 58.746 97.292 L 57.94 99.811 C 56.129 105.471 54.909 111.295 54.314 117.13 C 53.869 121.487 53.978 130.955 54.519 134.868 C 55.849 144.496 58.459 152.834 62.8 161.318 C 72.293 179.874 88.887 194.339 108.378 201.049 C 113.423 202.786 120.141 204.355 124.4 204.792 C 125.147 204.868 125.847 204.99 125.956 205.061 C 126.064 205.133 129.272 209.596 133.085 214.979 L 140.018 224.766 L 138.757 224.898 C 137.091 225.072 130.983 225.014 127.691 224.793 L 127.691 224.793 Z " fill="rgb(70,70,70)"/></g><g><path d=" M 516.72 121.525 L 516.72 93.145 L 516.72 93.145 Q 516.72 89.57 518.81 87.508 L 518.81 87.508 L 518.81 87.508 Q 520.9 85.445 524.695 85.445 L 524.695 85.445 L 534.65 85.445 L 534.65 85.445 Q 542.625 85.445 546.668 88.635 L 546.668 88.635 L 546.668 88.635 Q 550.71 91.825 550.71 98.04 L 550.71 98.04 L 550.71 98.04 Q 550.71 103.925 547.135 107.17 L 547.135 107.17 L 547.135 107.17 Q 543.56 110.415 537.235 110.415 L 537.235 110.415 L 546.365 119.655 L 546.365 119.655 Q 547.245 120.535 547.245 121.58 L 547.245 121.58 L 547.245 121.58 Q 547.245 122.735 546.145 123.67 L 546.145 123.67 L 546.145 123.67 Q 545.1 124.44 544.11 124.44 L 544.11 124.44 L 544.11 124.44 Q 542.735 124.44 541.47 123.12 L 541.47 123.12 L 529.37 110.58 L 523.155 110.58 L 523.155 121.525 L 523.155 121.525 Q 523.155 122.9 522.247 123.697 L 522.247 123.697 L 522.247 123.697 Q 521.34 124.495 519.91 124.495 L 519.91 124.495 L 519.91 124.495 Q 518.425 124.495 517.573 123.697 L 517.573 123.697 L 517.573 123.697 Q 516.72 122.9 516.72 121.525 L 516.72 121.525 L 516.72 121.525 Z  M 523.155 105.52 L 534.595 105.52 L 534.595 105.52 Q 539.875 105.52 542.048 103.843 L 542.048 103.843 L 542.048 103.843 Q 544.22 102.165 544.22 98.04 L 544.22 98.04 L 544.22 98.04 Q 544.22 94.025 541.855 92.265 L 541.855 92.265 L 541.855 92.265 Q 539.49 90.505 534.595 90.505 L 534.595 90.505 L 525.63 90.505 L 525.63 90.505 Q 524.475 90.505 523.815 91.248 L 523.815 91.248 L 523.815 91.248 Q 523.155 91.99 523.155 93.31 L 523.155 93.31 L 523.155 105.52 L 523.155 105.52 Z  M 571.065 123.945 L 571.065 123.945 Q 567.16 123.945 564.988 121.883 L 564.988 121.883 L 564.988 121.883 Q 562.815 119.82 562.815 116.135 L 562.815 116.135 L 562.815 93.09 L 562.815 93.09 Q 562.815 89.515 564.905 87.48 L 564.905 87.48 L 564.905 87.48 Q 566.995 85.445 570.735 85.445 L 570.735 85.445 L 587.84 85.445 L 587.84 85.445 Q 589.27 85.445 590.04 86.078 L 590.04 86.078 L 590.04 86.078 Q 590.81 86.71 590.81 87.92 L 590.81 87.92 L 590.81 87.92 Q 590.81 89.075 590.04 89.708 L 590.04 89.708 L 590.04 89.708 Q 589.27 90.34 587.84 90.34 L 587.84 90.34 L 571.615 90.34 L 571.615 90.34 Q 570.405 90.34 569.745 91.11 L 569.745 91.11 L 569.745 91.11 Q 569.085 91.88 569.085 93.2 L 569.085 93.2 L 569.085 101.835 L 583.66 101.835 L 583.66 101.835 Q 585.09 101.835 585.86 102.468 L 585.86 102.468 L 585.86 102.468 Q 586.63 103.1 586.63 104.31 L 586.63 104.31 L 586.63 104.31 Q 586.63 105.465 585.86 106.098 L 585.86 106.098 L 585.86 106.098 Q 585.09 106.73 583.66 106.73 L 583.66 106.73 L 569.085 106.73 L 569.085 116.19 L 569.085 116.19 Q 569.085 117.51 569.745 118.28 L 569.745 118.28 L 569.745 118.28 Q 570.405 119.05 571.615 119.05 L 571.615 119.05 L 589.05 119.05 L 589.05 119.05 Q 590.48 119.05 591.25 119.683 L 591.25 119.683 L 591.25 119.683 Q 592.02 120.315 592.02 121.525 L 592.02 121.525 L 592.02 121.525 Q 592.02 122.68 591.25 123.313 L 591.25 123.313 L 591.25 123.313 Q 590.48 123.945 589.05 123.945 L 589.05 123.945 L 571.065 123.945 L 571.065 123.945 Z  M 607.04 124.44 L 607.04 124.44 Q 605.61 124.44 604.785 123.67 L 604.785 123.67 L 604.785 123.67 Q 603.96 122.9 603.96 121.525 L 603.96 121.525 L 603.96 101.505 L 603.96 101.505 Q 603.96 93.695 608.415 89.295 L 608.415 89.295 L 608.415 89.295 Q 612.87 84.895 620.79 84.895 L 620.79 84.895 L 620.79 84.895 Q 625.96 84.895 629.755 86.903 L 629.755 86.903 L 629.755 86.903 Q 633.55 88.91 635.558 92.65 L 635.558 92.65 L 635.558 92.65 Q 637.565 96.39 637.565 101.505 L 637.565 101.505 L 637.565 121.525 L 637.565 121.525 Q 637.565 122.9 636.74 123.67 L 636.74 123.67 L 636.74 123.67 Q 635.915 124.44 634.485 124.44 L 634.485 124.44 L 634.485 124.44 Q 633.055 124.44 632.175 123.643 L 632.175 123.643 L 632.175 123.643 Q 631.295 122.845 631.295 121.525 L 631.295 121.525 L 631.295 111.405 L 610.23 111.405 L 610.23 121.525 L 610.23 121.525 Q 610.23 122.845 609.35 123.643 L 609.35 123.643 L 609.35 123.643 Q 608.47 124.44 607.04 124.44 L 607.04 124.44 L 607.04 124.44 Z  M 610.23 106.51 L 631.295 106.51 L 631.295 101.34 L 631.295 101.34 Q 631.295 95.73 628.628 92.815 L 628.628 92.815 L 628.628 92.815 Q 625.96 89.9 620.79 89.9 L 620.79 89.9 L 620.79 89.9 Q 615.565 89.9 612.898 92.788 L 612.898 92.788 L 612.898 92.788 Q 610.23 95.675 610.23 101.34 L 610.23 101.34 L 610.23 106.51 L 610.23 106.51 Z  M 658.58 123.945 L 658.58 123.945 Q 654.73 123.945 652.558 121.883 L 652.558 121.883 L 652.558 121.883 Q 650.385 119.82 650.385 116.135 L 650.385 116.135 L 650.385 87.81 L 650.385 87.81 Q 650.385 86.435 651.21 85.665 L 651.21 85.665 L 651.21 85.665 Q 652.035 84.895 653.465 84.895 L 653.465 84.895 L 653.465 84.895 Q 654.895 84.895 655.748 85.693 L 655.748 85.693 L 655.748 85.693 Q 656.6 86.49 656.6 87.81 L 656.6 87.81 L 656.6 116.19 L 656.6 116.19 Q 656.6 117.51 657.288 118.28 L 657.288 118.28 L 657.288 118.28 Q 657.975 119.05 659.185 119.05 L 659.185 119.05 L 677.005 119.05 L 677.005 119.05 Q 679.975 119.05 679.975 121.525 L 679.975 121.525 L 679.975 121.525 Q 679.975 122.68 679.205 123.313 L 679.205 123.313 L 679.205 123.313 Q 678.435 123.945 677.005 123.945 L 677.005 123.945 L 658.58 123.945 L 658.58 123.945 Z  M 697.855 124.495 L 697.855 124.495 Q 696.425 124.495 695.573 123.725 L 695.573 123.725 L 695.573 123.725 Q 694.72 122.955 694.72 121.58 L 694.72 121.58 L 694.72 90.34 L 683.445 90.34 L 683.445 90.34 Q 682.015 90.34 681.245 89.708 L 681.245 89.708 L 681.245 89.708 Q 680.475 89.075 680.475 87.92 L 680.475 87.92 L 680.475 87.92 Q 680.475 86.71 681.245 86.078 L 681.245 86.078 L 681.245 86.078 Q 682.015 85.445 683.445 85.445 L 683.445 85.445 L 712.265 85.445 L 712.265 85.445 Q 713.695 85.445 714.493 86.078 L 714.493 86.078 L 714.493 86.078 Q 715.29 86.71 715.29 87.92 L 715.29 87.92 L 715.29 87.92 Q 715.29 89.075 714.493 89.708 L 714.493 89.708 L 714.493 89.708 Q 713.695 90.34 712.265 90.34 L 712.265 90.34 L 700.99 90.34 L 700.99 121.58 L 700.99 121.58 Q 700.99 122.9 700.138 123.697 L 700.138 123.697 L 700.138 123.697 Q 699.285 124.495 697.855 124.495 L 697.855 124.495 L 697.855 124.495 Z  M 756.875 84.895 L 756.875 84.895 Q 758.305 84.895 759.13 85.665 L 759.13 85.665 L 759.13 85.665 Q 759.955 86.435 759.955 87.81 L 759.955 87.81 L 759.955 93.97 L 759.955 93.97 Q 759.955 101.23 756.243 105.85 L 756.243 105.85 L 756.243 105.85 Q 752.53 110.47 745.985 111.405 L 745.985 111.405 L 745.985 121.58 L 745.985 121.58 Q 745.985 122.9 745.133 123.697 L 745.133 123.697 L 745.133 123.697 Q 744.28 124.495 742.85 124.495 L 742.85 124.495 L 742.85 124.495 Q 741.42 124.495 740.568 123.725 L 740.568 123.725 L 740.568 123.725 Q 739.715 122.955 739.715 121.58 L 739.715 121.58 L 739.715 111.405 L 739.715 111.405 Q 733.115 110.47 729.403 105.905 L 729.403 105.905 L 729.403 105.905 Q 725.69 101.34 725.69 93.97 L 725.69 93.97 L 725.69 87.81 L 725.69 87.81 Q 725.69 86.435 726.543 85.665 L 726.543 85.665 L 726.543 85.665 Q 727.395 84.895 728.825 84.895 L 728.825 84.895 L 728.825 84.895 Q 730.255 84.895 731.108 85.693 L 731.108 85.693 L 731.108 85.693 Q 731.96 86.49 731.96 87.81 L 731.96 87.81 L 731.96 94.135 L 731.96 94.135 Q 731.96 100.13 734.793 103.375 L 734.793 103.375 L 734.793 103.375 Q 737.625 106.62 742.85 106.62 L 742.85 106.62 L 742.85 106.62 Q 748.02 106.62 750.853 103.348 L 750.853 103.348 L 750.853 103.348 Q 753.685 100.075 753.685 94.135 L 753.685 94.135 L 753.685 87.81 L 753.685 87.81 Q 753.685 86.49 754.565 85.693 L 754.565 85.693 L 754.565 85.693 Q 755.445 84.895 756.875 84.895 L 756.875 84.895 L 756.875 84.895 Z  M 277.435 124.495 L 277.435 124.495 Q 271.33 124.495 266.738 122.02 L 266.738 122.02 L 266.738 122.02 Q 262.145 119.545 259.67 115.035 L 259.67 115.035 L 259.67 115.035 Q 257.195 110.525 257.195 104.695 L 257.195 104.695 L 257.195 104.695 Q 257.195 98.865 259.67 94.355 L 259.67 94.355 L 259.67 94.355 Q 262.145 89.845 266.738 87.37 L 266.738 87.37 L 266.738 87.37 Q 271.33 84.895 277.435 84.895 L 277.435 84.895 L 277.435 84.895 Q 283.54 84.895 288.133 87.37 L 288.133 87.37 L 288.133 87.37 Q 292.725 89.845 295.2 94.355 L 295.2 94.355 L 295.2 94.355 Q 297.675 98.865 297.675 104.695 L 297.675 104.695 L 297.675 104.695 Q 297.675 110.525 295.2 115.035 L 295.2 115.035 L 295.2 115.035 Q 292.725 119.545 288.133 122.02 L 288.133 122.02 L 288.133 122.02 Q 283.54 124.495 277.435 124.495 L 277.435 124.495 L 277.435 124.495 Z  M 277.435 119.49 L 277.435 119.49 Q 283.87 119.49 287.61 115.53 L 287.61 115.53 L 287.61 115.53 Q 291.35 111.57 291.35 104.695 L 291.35 104.695 L 291.35 104.695 Q 291.35 97.765 287.528 93.833 L 287.528 93.833 L 287.528 93.833 Q 283.705 89.9 277.105 89.9 L 277.105 89.9 L 277.105 89.9 Q 272.925 89.9 269.845 91.715 L 269.845 91.715 L 269.845 91.715 Q 266.765 93.53 265.115 96.885 L 265.115 96.885 L 265.115 96.885 Q 263.465 100.24 263.465 104.695 L 263.465 104.695 L 263.465 104.695 Q 263.465 109.26 265.17 112.588 L 265.17 112.588 L 265.17 112.588 Q 266.875 115.915 270.01 117.703 L 270.01 117.703 L 270.01 117.703 Q 273.145 119.49 277.435 119.49 L 277.435 119.49 L 277.435 119.49 Z  M 309.78 121.525 L 309.78 93.145 L 309.78 93.145 Q 309.78 89.57 311.87 87.508 L 311.87 87.508 L 311.87 87.508 Q 313.96 85.445 317.755 85.445 L 317.755 85.445 L 327.71 85.445 L 327.71 85.445 Q 335.685 85.445 339.727 88.635 L 339.727 88.635 L 339.727 88.635 Q 343.77 91.825 343.77 98.04 L 343.77 98.04 L 343.77 98.04 Q 343.77 103.925 340.195 107.17 L 340.195 107.17 L 340.195 107.17 Q 336.62 110.415 330.295 110.415 L 330.295 110.415 L 339.425 119.655 L 339.425 119.655 Q 340.305 120.535 340.305 121.58 L 340.305 121.58 L 340.305 121.58 Q 340.305 122.735 339.205 123.67 L 339.205 123.67 L 339.205 123.67 Q 338.16 124.44 337.17 124.44 L 337.17 124.44 L 337.17 124.44 Q 335.795 124.44 334.53 123.12 L 334.53 123.12 L 322.43 110.58 L 316.215 110.58 L 316.215 121.525 L 316.215 121.525 Q 316.215 122.9 315.308 123.697 L 315.308 123.697 L 315.308 123.697 Q 314.4 124.495 312.97 124.495 L 312.97 124.495 L 312.97 124.495 Q 311.485 124.495 310.633 123.697 L 310.633 123.697 L 310.633 123.697 Q 309.78 122.9 309.78 121.525 L 309.78 121.525 L 309.78 121.525 Z  M 316.215 105.52 L 327.655 105.52 L 327.655 105.52 Q 332.935 105.52 335.108 103.843 L 335.108 103.843 L 335.108 103.843 Q 337.28 102.165 337.28 98.04 L 337.28 98.04 L 337.28 98.04 Q 337.28 94.025 334.915 92.265 L 334.915 92.265 L 334.915 92.265 Q 332.55 90.505 327.655 90.505 L 327.655 90.505 L 318.69 90.505 L 318.69 90.505 Q 317.535 90.505 316.875 91.248 L 316.875 91.248 L 316.875 91.248 Q 316.215 91.99 316.215 93.31 L 316.215 93.31 L 316.215 105.52 L 316.215 105.52 Z  M 360.66 124.495 L 360.66 124.495 Q 359.23 124.495 358.378 123.725 L 358.378 123.725 L 358.378 123.725 Q 357.525 122.955 357.525 121.58 L 357.525 121.58 L 357.525 87.81 L 357.525 87.81 Q 357.525 86.435 358.378 85.665 L 358.378 85.665 L 358.378 85.665 Q 359.23 84.895 360.66 84.895 L 360.66 84.895 L 360.66 84.895 Q 362.035 84.895 362.915 85.693 L 362.915 85.693 L 362.915 85.693 Q 363.795 86.49 363.795 87.81 L 363.795 87.81 L 363.795 121.58 L 363.795 121.58 Q 363.795 122.9 362.915 123.697 L 362.915 123.697 L 362.915 123.697 Q 362.035 124.495 360.66 124.495 L 360.66 124.495 L 360.66 124.495 Z  M 397.515 124.495 L 397.515 124.495 Q 391.41 124.495 386.928 122.102 L 386.928 122.102 L 386.928 122.102 Q 382.445 119.71 380.053 115.255 L 380.053 115.255 L 380.053 115.255 Q 377.66 110.8 377.66 104.75 L 377.66 104.75 L 377.66 104.75 Q 377.66 98.7 380.053 94.218 L 380.053 94.218 L 380.053 94.218 Q 382.445 89.735 386.928 87.315 L 386.928 87.315 L 386.928 87.315 Q 391.41 84.895 397.46 84.895 L 397.46 84.895 L 397.46 84.895 Q 402.41 84.895 406.645 86.6 L 406.645 86.6 L 406.645 86.6 Q 410.88 88.305 413.025 91.165 L 413.025 91.165 L 413.025 91.165 Q 413.575 91.935 413.575 92.815 L 413.575 92.815 L 413.575 92.815 Q 413.575 94.08 412.365 94.96 L 412.365 94.96 L 412.365 94.96 Q 411.65 95.4 410.88 95.4 L 410.88 95.4 L 410.88 95.4 Q 410.165 95.4 409.477 95.07 L 409.477 95.07 L 409.477 95.07 Q 408.79 94.74 408.295 94.19 L 408.295 94.19 L 408.295 94.19 Q 406.48 92.045 403.813 90.973 L 403.813 90.973 L 403.813 90.973 Q 401.145 89.9 397.46 89.9 L 397.46 89.9 L 397.46 89.9 Q 391.135 89.9 387.533 93.833 L 387.533 93.833 L 387.533 93.833 Q 383.93 97.765 383.93 104.75 L 383.93 104.75 L 383.93 104.75 Q 383.93 111.68 387.533 115.585 L 387.533 115.585 L 387.533 115.585 Q 391.135 119.49 397.515 119.49 L 397.515 119.49 L 397.515 119.49 Q 402.74 119.49 405.793 117.345 L 405.793 117.345 L 405.793 117.345 Q 408.845 115.2 408.845 111.515 L 408.845 111.515 L 408.845 110.085 L 408.845 110.085 Q 408.845 108.82 408.323 108.325 L 408.323 108.325 L 408.323 108.325 Q 407.8 107.83 406.37 107.83 L 406.37 107.83 L 398.78 107.83 L 398.78 107.83 Q 397.405 107.83 396.663 107.198 L 396.663 107.198 L 396.663 107.198 Q 395.92 106.565 395.92 105.41 L 395.92 105.41 L 395.92 105.41 Q 395.92 104.2 396.663 103.54 L 396.663 103.54 L 396.663 103.54 Q 397.405 102.88 398.78 102.88 L 398.78 102.88 L 408.955 102.88 L 408.955 102.88 Q 412.09 102.88 413.602 104.255 L 413.602 104.255 L 413.602 104.255 Q 415.115 105.63 415.115 108.49 L 415.115 108.49 L 415.115 110.635 L 415.115 110.635 Q 415.115 114.65 412.86 117.785 L 412.86 117.785 L 412.86 117.785 Q 410.605 120.92 406.59 122.708 L 406.59 122.708 L 406.59 122.708 Q 402.575 124.495 397.515 124.495 L 397.515 124.495 L 397.515 124.495 Z  M 432.115 124.495 L 432.115 124.495 Q 430.685 124.495 429.833 123.725 L 429.833 123.725 L 429.833 123.725 Q 428.98 122.955 428.98 121.58 L 428.98 121.58 L 428.98 87.81 L 428.98 87.81 Q 428.98 86.435 429.833 85.665 L 429.833 85.665 L 429.833 85.665 Q 430.685 84.895 432.115 84.895 L 432.115 84.895 L 432.115 84.895 Q 433.49 84.895 434.37 85.693 L 434.37 85.693 L 434.37 85.693 Q 435.25 86.49 435.25 87.81 L 435.25 87.81 L 435.25 121.58 L 435.25 121.58 Q 435.25 122.9 434.37 123.697 L 434.37 123.697 L 434.37 123.697 Q 433.49 124.495 432.115 124.495 L 432.115 124.495 L 432.115 124.495 Z  M 452.745 124.495 L 452.745 124.495 Q 451.315 124.495 450.49 123.725 L 450.49 123.725 L 450.49 123.725 Q 449.665 122.955 449.665 121.58 L 449.665 121.58 L 449.665 100.24 L 449.665 100.24 Q 449.665 93.035 454.148 88.965 L 454.148 88.965 L 454.148 88.965 Q 458.63 84.895 466.495 84.895 L 466.495 84.895 L 466.495 84.895 Q 471.665 84.895 475.46 86.738 L 475.46 86.738 L 475.46 86.738 Q 479.255 88.58 481.263 92.045 L 481.263 92.045 L 481.263 92.045 Q 483.27 95.51 483.27 100.24 L 483.27 100.24 L 483.27 121.58 L 483.27 121.58 Q 483.27 122.955 482.445 123.725 L 482.445 123.725 L 482.445 123.725 Q 481.62 124.495 480.19 124.495 L 480.19 124.495 L 480.19 124.495 Q 478.76 124.495 477.908 123.697 L 477.908 123.697 L 477.908 123.697 Q 477.055 122.9 477.055 121.58 L 477.055 121.58 L 477.055 100.075 L 477.055 100.075 Q 477.055 95.18 474.305 92.54 L 474.305 92.54 L 474.305 92.54 Q 471.555 89.9 466.495 89.9 L 466.495 89.9 L 466.495 89.9 Q 461.435 89.9 458.658 92.568 L 458.658 92.568 L 458.658 92.568 Q 455.88 95.235 455.88 100.075 L 455.88 100.075 L 455.88 121.58 L 455.88 121.58 Q 455.88 122.9 455.028 123.697 L 455.028 123.697 L 455.028 123.697 Q 454.175 124.495 452.745 124.495 L 452.745 124.495 L 452.745 124.495 Z " fill="rgb(70,70,70)"/><path d=" M 611.656 175.751 L 611.656 175.751 Q 609.952 175.751 609.004 174.851 L 609.004 174.851 L 609.004 174.851 Q 608.056 173.951 608.056 172.343 L 608.056 172.343 L 608.056 162.287 L 608.056 162.287 Q 608.056 160.727 608.968 159.839 L 608.968 159.839 L 608.968 159.839 Q 609.88 158.951 611.512 158.951 L 611.512 158.951 L 617.104 158.951 L 617.104 158.951 Q 619.768 158.951 621.232 160.139 L 621.232 160.139 L 621.232 160.139 Q 622.696 161.327 622.696 163.535 L 622.696 163.535 L 622.696 163.535 Q 622.696 164.687 622.048 165.623 L 622.048 165.623 L 622.048 165.623 Q 621.4 166.559 620.32 167.039 L 620.32 167.039 L 620.32 167.087 L 620.32 167.087 Q 621.52 167.543 622.252 168.527 L 622.252 168.527 L 622.252 168.527 Q 622.984 169.511 622.984 170.711 L 622.984 170.711 L 622.984 170.711 Q 622.984 173.063 621.496 174.407 L 621.496 174.407 L 621.496 174.407 Q 620.008 175.751 617.392 175.751 L 617.392 175.751 L 611.656 175.751 L 611.656 175.751 Z  M 610.744 166.079 L 617.176 166.079 L 617.176 166.079 Q 618.448 166.079 619.192 165.407 L 619.192 165.407 L 619.192 165.407 Q 619.936 164.735 619.936 163.559 L 619.936 163.559 L 619.936 163.559 Q 619.936 161.087 617.104 161.087 L 617.104 161.087 L 611.872 161.087 L 611.872 161.087 Q 611.344 161.087 611.044 161.423 L 611.044 161.423 L 611.044 161.423 Q 610.744 161.759 610.744 162.335 L 610.744 162.335 L 610.744 166.079 L 610.744 166.079 Z  M 611.872 173.615 L 617.176 173.615 L 617.176 173.615 Q 620.224 173.615 620.224 170.759 L 620.224 170.759 L 620.224 170.759 Q 620.224 169.535 619.408 168.851 L 619.408 168.851 L 619.408 168.851 Q 618.592 168.167 617.176 168.167 L 617.176 168.167 L 610.744 168.167 L 610.744 172.367 L 610.744 172.367 Q 610.744 172.943 611.044 173.279 L 611.044 173.279 L 611.044 173.279 Q 611.344 173.615 611.872 173.615 L 611.872 173.615 L 611.872 173.615 Z  M 636.496 175.991 L 636.496 175.991 Q 634.072 175.991 632.704 174.587 L 632.704 174.587 L 632.704 174.587 Q 631.336 173.183 631.336 170.687 L 631.336 170.687 L 631.336 165.023 L 631.336 165.023 Q 631.336 164.423 631.708 164.087 L 631.708 164.087 L 631.708 164.087 Q 632.08 163.751 632.704 163.751 L 632.704 163.751 L 632.704 163.751 Q 633.328 163.751 633.676 164.087 L 633.676 164.087 L 633.676 164.087 Q 634.024 164.423 634.024 165.023 L 634.024 165.023 L 634.024 170.687 L 634.024 170.687 Q 634.024 172.175 634.816 173.003 L 634.816 173.003 L 634.816 173.003 Q 635.608 173.831 637.024 173.831 L 637.024 173.831 L 637.024 173.831 Q 638.8 173.831 639.856 172.691 L 639.856 172.691 L 639.856 172.691 Q 640.912 171.551 640.912 169.607 L 640.912 169.607 L 640.912 165.023 L 640.912 165.023 Q 640.912 164.423 641.272 164.087 L 641.272 164.087 L 641.272 164.087 Q 641.632 163.751 642.256 163.751 L 642.256 163.751 L 642.256 163.751 Q 642.88 163.751 643.24 164.087 L 643.24 164.087 L 643.24 164.087 Q 643.6 164.423 643.6 165.023 L 643.6 165.023 L 643.6 174.719 L 643.6 174.719 Q 643.6 175.319 643.264 175.655 L 643.264 175.655 L 643.264 175.655 Q 642.928 175.991 642.304 175.991 L 642.304 175.991 L 642.304 175.991 Q 641.68 175.991 641.332 175.643 L 641.332 175.643 L 641.332 175.643 Q 640.984 175.295 640.984 174.719 L 640.984 174.719 L 640.984 173.783 L 640.984 173.783 Q 639.232 175.991 636.496 175.991 L 636.496 175.991 L 636.496 175.991 Z  M 657.784 175.991 L 657.784 175.991 Q 655.816 175.991 654.412 175.379 L 654.412 175.379 L 654.412 175.379 Q 653.008 174.767 652.144 173.711 L 652.144 173.711 L 652.144 173.711 Q 651.856 173.303 651.856 172.943 L 651.856 172.943 L 651.856 172.943 Q 651.856 172.367 652.408 172.031 L 652.408 172.031 L 652.408 172.031 Q 652.744 171.839 653.032 171.839 L 653.032 171.839 L 653.032 171.839 Q 653.488 171.839 653.944 172.295 L 653.944 172.295 L 653.944 172.295 Q 654.76 173.111 655.612 173.483 L 655.612 173.483 L 655.612 173.483 Q 656.464 173.855 657.664 173.855 L 657.664 173.855 L 657.664 173.855 Q 658.768 173.855 659.464 173.543 L 659.464 173.543 L 659.464 173.543 Q 660.16 173.231 660.16 172.703 L 660.16 172.703 L 660.16 172.703 Q 660.16 172.295 659.908 172.019 L 659.908 172.019 L 659.908 172.019 Q 659.656 171.743 659.032 171.479 L 659.032 171.479 L 659.032 171.479 Q 658.408 171.215 657.088 170.783 L 657.088 170.783 L 657.088 170.783 Q 654.544 169.967 653.5 169.115 L 653.5 169.115 L 653.5 169.115 Q 652.456 168.263 652.456 166.943 L 652.456 166.943 L 652.456 166.943 Q 652.456 165.455 653.728 164.603 L 653.728 164.603 L 653.728 164.603 Q 655 163.751 657.184 163.751 L 657.184 163.751 L 657.184 163.751 Q 658.84 163.751 660.208 164.279 L 660.208 164.279 L 660.208 164.279 Q 661.576 164.807 662.224 165.671 L 662.224 165.671 L 662.224 165.671 Q 662.488 166.007 662.488 166.391 L 662.488 166.391 L 662.488 166.391 Q 662.488 166.871 661.984 167.207 L 661.984 167.207 L 661.984 167.207 Q 661.672 167.423 661.264 167.423 L 661.264 167.423 L 661.264 167.423 Q 660.712 167.423 660.16 166.919 L 660.16 166.919 L 660.16 166.919 Q 659.08 165.887 657.16 165.887 L 657.16 165.887 L 657.16 165.887 Q 655.168 165.887 655.168 166.943 L 655.168 166.943 L 655.168 166.943 Q 655.168 167.351 655.432 167.615 L 655.432 167.615 L 655.432 167.615 Q 655.696 167.879 656.356 168.131 L 656.356 168.131 L 656.356 168.131 Q 657.016 168.383 658.504 168.863 L 658.504 168.863 L 658.504 168.863 Q 660.136 169.367 661.072 169.895 L 661.072 169.895 L 661.072 169.895 Q 662.008 170.423 662.416 171.083 L 662.416 171.083 L 662.416 171.083 Q 662.824 171.743 662.824 172.703 L 662.824 172.703 L 662.824 172.703 Q 662.824 174.191 661.48 175.091 L 661.48 175.091 L 661.48 175.091 Q 660.136 175.991 657.784 175.991 L 657.784 175.991 L 657.784 175.991 Z  M 672.808 161.903 L 672.808 161.903 Q 672.04 161.903 671.548 161.459 L 671.548 161.459 L 671.548 161.459 Q 671.056 161.015 671.056 160.319 L 671.056 160.319 L 671.056 160.319 Q 671.056 159.623 671.548 159.179 L 671.548 159.179 L 671.548 159.179 Q 672.04 158.735 672.808 158.735 L 672.808 158.735 L 672.808 158.735 Q 673.576 158.735 674.08 159.179 L 674.08 159.179 L 674.08 159.179 Q 674.584 159.623 674.584 160.319 L 674.584 160.319 L 674.584 160.319 Q 674.584 161.015 674.08 161.459 L 674.08 161.459 L 674.08 161.459 Q 673.576 161.903 672.808 161.903 L 672.808 161.903 L 672.808 161.903 Z  M 672.808 175.991 L 672.808 175.991 Q 672.184 175.991 671.836 175.655 L 671.836 175.655 L 671.836 175.655 Q 671.488 175.319 671.488 174.719 L 671.488 174.719 L 671.488 165.023 L 671.488 165.023 Q 671.488 164.423 671.836 164.087 L 671.836 164.087 L 671.836 164.087 Q 672.184 163.751 672.808 163.751 L 672.808 163.751 L 672.808 163.751 Q 673.432 163.751 673.804 164.087 L 673.804 164.087 L 673.804 164.087 Q 674.176 164.423 674.176 165.023 L 674.176 165.023 L 674.176 174.719 L 674.176 174.719 Q 674.176 175.319 673.804 175.655 L 673.804 175.655 L 673.804 175.655 Q 673.432 175.991 672.808 175.991 L 672.808 175.991 L 672.808 175.991 Z  M 684.52 175.991 L 684.52 175.991 Q 683.896 175.991 683.536 175.655 L 683.536 175.655 L 683.536 175.655 Q 683.176 175.319 683.176 174.719 L 683.176 174.719 L 683.176 165.023 L 683.176 165.023 Q 683.176 164.423 683.524 164.087 L 683.524 164.087 L 683.524 164.087 Q 683.872 163.751 684.472 163.751 L 684.472 163.751 L 684.472 163.751 Q 685.096 163.751 685.444 164.087 L 685.444 164.087 L 685.444 164.087 Q 685.792 164.423 685.792 165.023 L 685.792 165.023 L 685.792 165.959 L 685.792 165.959 Q 687.568 163.751 690.544 163.751 L 690.544 163.751 L 690.544 163.751 Q 692.824 163.751 694.132 165.143 L 694.132 165.143 L 694.132 165.143 Q 695.44 166.535 695.44 168.983 L 695.44 168.983 L 695.44 174.719 L 695.44 174.719 Q 695.44 175.319 695.068 175.655 L 695.068 175.655 L 695.068 175.655 Q 694.696 175.991 694.072 175.991 L 694.072 175.991 L 694.072 175.991 Q 693.448 175.991 693.1 175.655 L 693.1 175.655 L 693.1 175.655 Q 692.752 175.319 692.752 174.719 L 692.752 174.719 L 692.752 168.983 L 692.752 168.983 Q 692.752 167.495 692.032 166.703 L 692.032 166.703 L 692.032 166.703 Q 691.312 165.911 689.992 165.911 L 689.992 165.911 L 689.992 165.911 Q 688.072 165.911 686.968 167.051 L 686.968 167.051 L 686.968 167.051 Q 685.864 168.191 685.864 170.135 L 685.864 170.135 L 685.864 174.719 L 685.864 174.719 Q 685.864 175.295 685.492 175.643 L 685.492 175.643 L 685.492 175.643 Q 685.12 175.991 684.52 175.991 L 684.52 175.991 L 684.52 175.991 Z  M 710.248 175.991 L 710.248 175.991 Q 708.184 175.991 706.66 175.259 L 706.66 175.259 L 706.66 175.259 Q 705.136 174.527 704.332 173.159 L 704.332 173.159 L 704.332 173.159 Q 703.528 171.791 703.528 169.919 L 703.528 169.919 L 703.528 169.919 Q 703.528 167.015 705.256 165.383 L 705.256 165.383 L 705.256 165.383 Q 706.984 163.751 710.056 163.751 L 710.056 163.751 L 710.056 163.751 Q 711.952 163.751 713.416 164.351 L 713.416 164.351 L 713.416 164.351 Q 714.88 164.951 715.696 166.019 L 715.696 166.019 L 715.696 166.019 Q 716.512 167.087 716.512 168.455 L 716.512 168.455 L 716.512 168.455 Q 716.512 169.559 715.84 170.159 L 715.84 170.159 L 715.84 170.159 Q 715.168 170.759 713.944 170.759 L 713.944 170.759 L 706.168 170.759 L 706.168 170.759 Q 706.168 172.247 707.224 173.063 L 707.224 173.063 L 707.224 173.063 Q 708.28 173.879 710.248 173.879 L 710.248 173.879 L 710.248 173.879 Q 711.376 173.879 712.24 173.639 L 712.24 173.639 L 712.24 173.639 Q 713.104 173.399 713.848 172.871 L 713.848 172.871 L 713.848 172.871 Q 714.544 172.415 714.904 172.415 L 714.904 172.415 L 714.904 172.415 Q 715.216 172.415 715.552 172.751 L 715.552 172.751 L 715.552 172.751 Q 715.936 173.111 715.936 173.543 L 715.936 173.543 L 715.936 173.543 Q 715.936 173.999 715.528 174.311 L 715.528 174.311 L 715.528 174.311 Q 713.512 175.991 710.248 175.991 L 710.248 175.991 L 710.248 175.991 Z  M 706.216 168.815 L 713.128 168.815 L 713.128 168.815 Q 713.536 168.815 713.728 168.647 L 713.728 168.647 L 713.728 168.647 Q 713.92 168.479 713.92 168.071 L 713.92 168.071 L 713.92 168.071 Q 713.92 167.087 712.864 166.475 L 712.864 166.475 L 712.864 166.475 Q 711.808 165.863 710.056 165.863 L 710.056 165.863 L 710.056 165.863 Q 708.28 165.863 707.248 166.667 L 707.248 166.667 L 707.248 166.667 Q 706.216 167.471 706.216 168.815 L 706.216 168.815 L 706.216 168.815 Z  M 730.336 175.991 L 730.336 175.991 Q 728.368 175.991 726.964 175.379 L 726.964 175.379 L 726.964 175.379 Q 725.56 174.767 724.696 173.711 L 724.696 173.711 L 724.696 173.711 Q 724.408 173.303 724.408 172.943 L 724.408 172.943 L 724.408 172.943 Q 724.408 172.367 724.96 172.031 L 724.96 172.031 L 724.96 172.031 Q 725.296 171.839 725.584 171.839 L 725.584 171.839 L 725.584 171.839 Q 726.04 171.839 726.496 172.295 L 726.496 172.295 L 726.496 172.295 Q 727.312 173.111 728.164 173.483 L 728.164 173.483 L 728.164 173.483 Q 729.016 173.855 730.216 173.855 L 730.216 173.855 L 730.216 173.855 Q 731.32 173.855 732.016 173.543 L 732.016 173.543 L 732.016 173.543 Q 732.712 173.231 732.712 172.703 L 732.712 172.703 L 732.712 172.703 Q 732.712 172.295 732.46 172.019 L 732.46 172.019 L 732.46 172.019 Q 732.208 171.743 731.584 171.479 L 731.584 171.479 L 731.584 171.479 Q 730.96 171.215 729.64 170.783 L 729.64 170.783 L 729.64 170.783 Q 727.096 169.967 726.052 169.115 L 726.052 169.115 L 726.052 169.115 Q 725.008 168.263 725.008 166.943 L 725.008 166.943 L 725.008 166.943 Q 725.008 165.455 726.28 164.603 L 726.28 164.603 L 726.28 164.603 Q 727.552 163.751 729.736 163.751 L 729.736 163.751 L 729.736 163.751 Q 731.392 163.751 732.76 164.279 L 732.76 164.279 L 732.76 164.279 Q 734.128 164.807 734.776 165.671 L 734.776 165.671 L 734.776 165.671 Q 735.04 166.007 735.04 166.391 L 735.04 166.391 L 735.04 166.391 Q 735.04 166.871 734.536 167.207 L 734.536 167.207 L 734.536 167.207 Q 734.224 167.423 733.816 167.423 L 733.816 167.423 L 733.816 167.423 Q 733.264 167.423 732.712 166.919 L 732.712 166.919 L 732.712 166.919 Q 731.632 165.887 729.712 165.887 L 729.712 165.887 L 729.712 165.887 Q 727.72 165.887 727.72 166.943 L 727.72 166.943 L 727.72 166.943 Q 727.72 167.351 727.984 167.615 L 727.984 167.615 L 727.984 167.615 Q 728.248 167.879 728.908 168.131 L 728.908 168.131 L 728.908 168.131 Q 729.568 168.383 731.056 168.863 L 731.056 168.863 L 731.056 168.863 Q 732.688 169.367 733.624 169.895 L 733.624 169.895 L 733.624 169.895 Q 734.56 170.423 734.968 171.083 L 734.968 171.083 L 734.968 171.083 Q 735.376 171.743 735.376 172.703 L 735.376 172.703 L 735.376 172.703 Q 735.376 174.191 734.032 175.091 L 734.032 175.091 L 734.032 175.091 Q 732.688 175.991 730.336 175.991 L 730.336 175.991 L 730.336 175.991 Z  M 749.2 175.991 L 749.2 175.991 Q 747.232 175.991 745.828 175.379 L 745.828 175.379 L 745.828 175.379 Q 744.424 174.767 743.56 173.711 L 743.56 173.711 L 743.56 173.711 Q 743.272 173.303 743.272 172.943 L 743.272 172.943 L 743.272 172.943 Q 743.272 172.367 743.824 172.031 L 743.824 172.031 L 743.824 172.031 Q 744.16 171.839 744.448 171.839 L 744.448 171.839 L 744.448 171.839 Q 744.904 171.839 745.36 172.295 L 745.36 172.295 L 745.36 172.295 Q 746.176 173.111 747.028 173.483 L 747.028 173.483 L 747.028 173.483 Q 747.88 173.855 749.08 173.855 L 749.08 173.855 L 749.08 173.855 Q 750.184 173.855 750.88 173.543 L 750.88 173.543 L 750.88 173.543 Q 751.576 173.231 751.576 172.703 L 751.576 172.703 L 751.576 172.703 Q 751.576 172.295 751.324 172.019 L 751.324 172.019 L 751.324 172.019 Q 751.072 171.743 750.448 171.479 L 750.448 171.479 L 750.448 171.479 Q 749.824 171.215 748.504 170.783 L 748.504 170.783 L 748.504 170.783 Q 745.96 169.967 744.916 169.115 L 744.916 169.115 L 744.916 169.115 Q 743.872 168.263 743.872 166.943 L 743.872 166.943 L 743.872 166.943 Q 743.872 165.455 745.144 164.603 L 745.144 164.603 L 745.144 164.603 Q 746.416 163.751 748.6 163.751 L 748.6 163.751 L 748.6 163.751 Q 750.256 163.751 751.624 164.279 L 751.624 164.279 L 751.624 164.279 Q 752.992 164.807 753.64 165.671 L 753.64 165.671 L 753.64 165.671 Q 753.904 166.007 753.904 166.391 L 753.904 166.391 L 753.904 166.391 Q 753.904 166.871 753.4 167.207 L 753.4 167.207 L 753.4 167.207 Q 753.088 167.423 752.68 167.423 L 752.68 167.423 L 752.68 167.423 Q 752.128 167.423 751.576 166.919 L 751.576 166.919 L 751.576 166.919 Q 750.496 165.887 748.576 165.887 L 748.576 165.887 L 748.576 165.887 Q 746.584 165.887 746.584 166.943 L 746.584 166.943 L 746.584 166.943 Q 746.584 167.351 746.848 167.615 L 746.848 167.615 L 746.848 167.615 Q 747.112 167.879 747.772 168.131 L 747.772 168.131 L 747.772 168.131 Q 748.432 168.383 749.92 168.863 L 749.92 168.863 L 749.92 168.863 Q 751.552 169.367 752.488 169.895 L 752.488 169.895 L 752.488 169.895 Q 753.424 170.423 753.832 171.083 L 753.832 171.083 L 753.832 171.083 Q 754.24 171.743 754.24 172.703 L 754.24 172.703 L 754.24 172.703 Q 754.24 174.191 752.896 175.091 L 752.896 175.091 L 752.896 175.091 Q 751.552 175.991 749.2 175.991 L 749.2 175.991 L 749.2 175.991 Z  M 521.392 175.991 L 521.392 175.991 Q 520.768 175.991 520.396 175.655 L 520.396 175.655 L 520.396 175.655 Q 520.024 175.319 520.024 174.719 L 520.024 174.719 L 520.024 161.087 L 515.104 161.087 L 515.104 161.087 Q 514.48 161.087 514.144 160.811 L 514.144 160.811 L 514.144 160.811 Q 513.808 160.535 513.808 160.031 L 513.808 160.031 L 513.808 160.031 Q 513.808 159.503 514.144 159.227 L 514.144 159.227 L 514.144 159.227 Q 514.48 158.951 515.104 158.951 L 515.104 158.951 L 527.68 158.951 L 527.68 158.951 Q 528.304 158.951 528.652 159.227 L 528.652 159.227 L 528.652 159.227 Q 529 159.503 529 160.031 L 529 160.031 L 529 160.031 Q 529 160.535 528.652 160.811 L 528.652 160.811 L 528.652 160.811 Q 528.304 161.087 527.68 161.087 L 527.68 161.087 L 522.76 161.087 L 522.76 174.719 L 522.76 174.719 Q 522.76 175.295 522.388 175.643 L 522.388 175.643 L 522.388 175.643 Q 522.016 175.991 521.392 175.991 L 521.392 175.991 L 521.392 175.991 Z  M 539.824 175.991 L 539.824 175.991 Q 537.76 175.991 536.236 175.259 L 536.236 175.259 L 536.236 175.259 Q 534.712 174.527 533.908 173.159 L 533.908 173.159 L 533.908 173.159 Q 533.104 171.791 533.104 169.919 L 533.104 169.919 L 533.104 169.919 Q 533.104 167.015 534.832 165.383 L 534.832 165.383 L 534.832 165.383 Q 536.56 163.751 539.632 163.751 L 539.632 163.751 L 539.632 163.751 Q 541.528 163.751 542.992 164.351 L 542.992 164.351 L 542.992 164.351 Q 544.456 164.951 545.272 166.019 L 545.272 166.019 L 545.272 166.019 Q 546.088 167.087 546.088 168.455 L 546.088 168.455 L 546.088 168.455 Q 546.088 169.559 545.416 170.159 L 545.416 170.159 L 545.416 170.159 Q 544.744 170.759 543.52 170.759 L 543.52 170.759 L 535.744 170.759 L 535.744 170.759 Q 535.744 172.247 536.8 173.063 L 536.8 173.063 L 536.8 173.063 Q 537.856 173.879 539.824 173.879 L 539.824 173.879 L 539.824 173.879 Q 540.952 173.879 541.816 173.639 L 541.816 173.639 L 541.816 173.639 Q 542.68 173.399 543.424 172.871 L 543.424 172.871 L 543.424 172.871 Q 544.12 172.415 544.48 172.415 L 544.48 172.415 L 544.48 172.415 Q 544.792 172.415 545.128 172.751 L 545.128 172.751 L 545.128 172.751 Q 545.512 173.111 545.512 173.543 L 545.512 173.543 L 545.512 173.543 Q 545.512 173.999 545.104 174.311 L 545.104 174.311 L 545.104 174.311 Q 543.088 175.991 539.824 175.991 L 539.824 175.991 L 539.824 175.991 Z  M 535.792 168.815 L 542.704 168.815 L 542.704 168.815 Q 543.112 168.815 543.304 168.647 L 543.304 168.647 L 543.304 168.647 Q 543.496 168.479 543.496 168.071 L 543.496 168.071 L 543.496 168.071 Q 543.496 167.087 542.44 166.475 L 542.44 166.475 L 542.44 166.475 Q 541.384 165.863 539.632 165.863 L 539.632 165.863 L 539.632 165.863 Q 537.856 165.863 536.824 166.667 L 536.824 166.667 L 536.824 166.667 Q 535.792 167.471 535.792 168.815 L 535.792 168.815 L 535.792 168.815 Z  M 560.608 175.991 L 560.608 175.991 Q 557.512 175.991 555.736 174.359 L 555.736 174.359 L 555.736 174.359 Q 553.96 172.727 553.96 169.847 L 553.96 169.847 L 553.96 169.847 Q 553.96 167.015 555.736 165.383 L 555.736 165.383 L 555.736 165.383 Q 557.512 163.751 560.608 163.751 L 560.608 163.751 L 560.608 163.751 Q 562.336 163.751 563.704 164.303 L 563.704 164.303 L 563.704 164.303 Q 565.072 164.855 565.864 165.863 L 565.864 165.863 L 565.864 165.863 Q 566.128 166.199 566.128 166.535 L 566.128 166.535 L 566.128 166.535 Q 566.128 167.087 565.552 167.495 L 565.552 167.495 L 565.552 167.495 Q 565.288 167.687 564.952 167.687 L 564.952 167.687 L 564.952 167.687 Q 564.28 167.687 563.8 167.159 L 563.8 167.159 L 563.8 167.159 Q 563.248 166.559 562.432 166.235 L 562.432 166.235 L 562.432 166.235 Q 561.616 165.911 560.608 165.911 L 560.608 165.911 L 560.608 165.911 Q 558.736 165.911 557.704 166.943 L 557.704 166.943 L 557.704 166.943 Q 556.672 167.975 556.672 169.847 L 556.672 169.847 L 556.672 169.847 Q 556.672 171.743 557.704 172.787 L 557.704 172.787 L 557.704 172.787 Q 558.736 173.831 560.608 173.831 L 560.608 173.831 L 560.608 173.831 Q 562.696 173.831 564.088 172.487 L 564.088 172.487 L 564.088 172.487 Q 564.664 171.911 565.216 171.911 L 565.216 171.911 L 565.216 171.911 Q 565.624 171.911 565.912 172.175 L 565.912 172.175 L 565.912 172.175 Q 566.416 172.559 566.416 173.111 L 566.416 173.111 L 566.416 173.111 Q 566.416 173.519 566.104 173.807 L 566.104 173.807 L 566.104 173.807 Q 564.976 174.935 563.644 175.463 L 563.644 175.463 L 563.644 175.463 Q 562.312 175.991 560.608 175.991 L 560.608 175.991 L 560.608 175.991 Z  M 575.992 175.991 L 575.992 175.991 Q 575.368 175.991 575.008 175.655 L 575.008 175.655 L 575.008 175.655 Q 574.648 175.319 574.648 174.719 L 574.648 174.719 L 574.648 158.807 L 574.648 158.807 Q 574.648 158.207 575.008 157.871 L 575.008 157.871 L 575.008 157.871 Q 575.368 157.535 575.992 157.535 L 575.992 157.535 L 575.992 157.535 Q 576.616 157.535 576.976 157.871 L 576.976 157.871 L 576.976 157.871 Q 577.336 158.207 577.336 158.807 L 577.336 158.807 L 577.336 165.959 L 577.336 165.959 Q 579.088 163.751 582.016 163.751 L 582.016 163.751 L 582.016 163.751 Q 584.296 163.751 585.604 165.143 L 585.604 165.143 L 585.604 165.143 Q 586.912 166.535 586.912 168.983 L 586.912 168.983 L 586.912 174.719 L 586.912 174.719 Q 586.912 175.319 586.54 175.655 L 586.54 175.655 L 586.54 175.655 Q 586.168 175.991 585.544 175.991 L 585.544 175.991 L 585.544 175.991 Q 584.92 175.991 584.572 175.655 L 584.572 175.655 L 584.572 175.655 Q 584.224 175.319 584.224 174.719 L 584.224 174.719 L 584.224 168.983 L 584.224 168.983 Q 584.224 167.495 583.504 166.703 L 583.504 166.703 L 583.504 166.703 Q 582.784 165.911 581.464 165.911 L 581.464 165.911 L 581.464 165.911 Q 579.544 165.911 578.44 167.051 L 578.44 167.051 L 578.44 167.051 Q 577.336 168.191 577.336 170.135 L 577.336 170.135 L 577.336 174.719 L 577.336 174.719 Q 577.336 175.295 576.964 175.643 L 576.964 175.643 L 576.964 175.643 Q 576.592 175.991 575.992 175.991 L 575.992 175.991 L 575.992 175.991 Z  M 390.832 175.751 L 390.832 175.751 Q 389.128 175.751 388.18 174.851 L 388.18 174.851 L 388.18 174.851 Q 387.232 173.951 387.232 172.343 L 387.232 172.343 L 387.232 162.287 L 387.232 162.287 Q 387.232 160.727 388.144 159.839 L 388.144 159.839 L 388.144 159.839 Q 389.056 158.951 390.688 158.951 L 390.688 158.951 L 398.152 158.951 L 398.152 158.951 Q 398.776 158.951 399.112 159.227 L 399.112 159.227 L 399.112 159.227 Q 399.448 159.503 399.448 160.031 L 399.448 160.031 L 399.448 160.031 Q 399.448 160.535 399.112 160.811 L 399.112 160.811 L 399.112 160.811 Q 398.776 161.087 398.152 161.087 L 398.152 161.087 L 391.072 161.087 L 391.072 161.087 Q 390.544 161.087 390.256 161.423 L 390.256 161.423 L 390.256 161.423 Q 389.968 161.759 389.968 162.335 L 389.968 162.335 L 389.968 166.103 L 396.328 166.103 L 396.328 166.103 Q 396.952 166.103 397.288 166.379 L 397.288 166.379 L 397.288 166.379 Q 397.624 166.655 397.624 167.183 L 397.624 167.183 L 397.624 167.183 Q 397.624 167.687 397.288 167.963 L 397.288 167.963 L 397.288 167.963 Q 396.952 168.239 396.328 168.239 L 396.328 168.239 L 389.968 168.239 L 389.968 172.367 L 389.968 172.367 Q 389.968 172.943 390.256 173.279 L 390.256 173.279 L 390.256 173.279 Q 390.544 173.615 391.072 173.615 L 391.072 173.615 L 398.68 173.615 L 398.68 173.615 Q 399.304 173.615 399.64 173.891 L 399.64 173.891 L 399.64 173.891 Q 399.976 174.167 399.976 174.695 L 399.976 174.695 L 399.976 174.695 Q 399.976 175.199 399.64 175.475 L 399.64 175.475 L 399.64 175.475 Q 399.304 175.751 398.68 175.751 L 398.68 175.751 L 390.832 175.751 L 390.832 175.751 Z  M 413.2 175.991 L 413.2 175.991 Q 411.232 175.991 409.828 175.379 L 409.828 175.379 L 409.828 175.379 Q 408.424 174.767 407.56 173.711 L 407.56 173.711 L 407.56 173.711 Q 407.272 173.303 407.272 172.943 L 407.272 172.943 L 407.272 172.943 Q 407.272 172.367 407.824 172.031 L 407.824 172.031 L 407.824 172.031 Q 408.16 171.839 408.448 171.839 L 408.448 171.839 L 408.448 171.839 Q 408.904 171.839 409.36 172.295 L 409.36 172.295 L 409.36 172.295 Q 410.176 173.111 411.028 173.483 L 411.028 173.483 L 411.028 173.483 Q 411.88 173.855 413.08 173.855 L 413.08 173.855 L 413.08 173.855 Q 414.184 173.855 414.88 173.543 L 414.88 173.543 L 414.88 173.543 Q 415.576 173.231 415.576 172.703 L 415.576 172.703 L 415.576 172.703 Q 415.576 172.295 415.324 172.019 L 415.324 172.019 L 415.324 172.019 Q 415.072 171.743 414.448 171.479 L 414.448 171.479 L 414.448 171.479 Q 413.824 171.215 412.504 170.783 L 412.504 170.783 L 412.504 170.783 Q 409.96 169.967 408.916 169.115 L 408.916 169.115 L 408.916 169.115 Q 407.872 168.263 407.872 166.943 L 407.872 166.943 L 407.872 166.943 Q 407.872 165.455 409.144 164.603 L 409.144 164.603 L 409.144 164.603 Q 410.416 163.751 412.6 163.751 L 412.6 163.751 L 412.6 163.751 Q 414.256 163.751 415.624 164.279 L 415.624 164.279 L 415.624 164.279 Q 416.992 164.807 417.64 165.671 L 417.64 165.671 L 417.64 165.671 Q 417.904 166.007 417.904 166.391 L 417.904 166.391 L 417.904 166.391 Q 417.904 166.871 417.4 167.207 L 417.4 167.207 L 417.4 167.207 Q 417.088 167.423 416.68 167.423 L 416.68 167.423 L 416.68 167.423 Q 416.128 167.423 415.576 166.919 L 415.576 166.919 L 415.576 166.919 Q 414.496 165.887 412.576 165.887 L 412.576 165.887 L 412.576 165.887 Q 410.584 165.887 410.584 166.943 L 410.584 166.943 L 410.584 166.943 Q 410.584 167.351 410.848 167.615 L 410.848 167.615 L 410.848 167.615 Q 411.112 167.879 411.772 168.131 L 411.772 168.131 L 411.772 168.131 Q 412.432 168.383 413.92 168.863 L 413.92 168.863 L 413.92 168.863 Q 415.552 169.367 416.488 169.895 L 416.488 169.895 L 416.488 169.895 Q 417.424 170.423 417.832 171.083 L 417.832 171.083 L 417.832 171.083 Q 418.24 171.743 418.24 172.703 L 418.24 172.703 L 418.24 172.703 Q 418.24 174.191 416.896 175.091 L 416.896 175.091 L 416.896 175.091 Q 415.552 175.991 413.2 175.991 L 413.2 175.991 L 413.2 175.991 Z  M 435.664 172.895 L 435.664 172.895 Q 436.024 173.183 436.024 173.567 L 436.024 173.567 L 436.024 173.567 Q 436.024 173.975 435.712 174.383 L 435.712 174.383 L 435.712 174.383 Q 435.208 175.127 434.272 175.559 L 434.272 175.559 L 434.272 175.559 Q 433.336 175.991 432.208 175.991 L 432.208 175.991 L 432.208 175.991 Q 430.408 175.991 429.376 174.983 L 429.376 174.983 L 429.376 174.983 Q 428.344 173.975 428.344 172.223 L 428.344 172.223 L 428.344 166.127 L 427.264 166.127 L 427.264 166.127 Q 426.616 166.127 426.244 165.839 L 426.244 165.839 L 426.244 165.839 Q 425.872 165.551 425.872 165.071 L 425.872 165.071 L 425.872 165.071 Q 425.872 164.567 426.244 164.279 L 426.244 164.279 L 426.244 164.279 Q 426.616 163.991 427.264 163.991 L 427.264 163.991 L 428.344 163.991 L 428.344 160.199 L 428.344 160.199 Q 428.344 159.599 428.704 159.263 L 428.704 159.263 L 428.704 159.263 Q 429.064 158.927 429.688 158.927 L 429.688 158.927 L 429.688 158.927 Q 430.312 158.927 430.672 159.263 L 430.672 159.263 L 430.672 159.263 Q 431.032 159.599 431.032 160.199 L 431.032 160.199 L 431.032 163.991 L 433.648 163.991 L 433.648 163.991 Q 434.272 163.991 434.644 164.279 L 434.644 164.279 L 434.644 164.279 Q 435.016 164.567 435.016 165.071 L 435.016 165.071 L 435.016 165.071 Q 435.016 165.551 434.656 165.839 L 434.656 165.839 L 434.656 165.839 Q 434.296 166.127 433.648 166.127 L 433.648 166.127 L 431.032 166.127 L 431.032 172.439 L 431.032 172.439 Q 431.032 173.087 431.392 173.459 L 431.392 173.459 L 431.392 173.459 Q 431.752 173.831 432.4 173.831 L 432.4 173.831 L 432.4 173.831 Q 433.288 173.831 433.984 173.135 L 433.984 173.135 L 433.984 173.135 Q 434.536 172.631 434.992 172.631 L 434.992 172.631 L 434.992 172.631 Q 435.376 172.631 435.664 172.895 L 435.664 172.895 L 435.664 172.895 Z  M 448.672 175.991 L 448.672 175.991 Q 446.392 175.991 445.024 174.911 L 445.024 174.911 L 445.024 174.911 Q 443.656 173.831 443.656 172.031 L 443.656 172.031 L 443.656 172.031 Q 443.656 170.255 445.108 169.199 L 445.108 169.199 L 445.108 169.199 Q 446.56 168.143 449.032 168.143 L 449.032 168.143 L 449.032 168.143 Q 451.432 168.143 452.776 169.247 L 452.776 169.247 L 452.776 168.335 L 452.776 168.335 Q 452.776 167.135 452.02 166.499 L 452.02 166.499 L 452.02 166.499 Q 451.264 165.863 449.8 165.863 L 449.8 165.863 L 449.8 165.863 Q 447.736 165.863 446.248 166.775 L 446.248 166.775 L 446.248 166.775 Q 445.744 167.063 445.336 167.063 L 445.336 167.063 L 445.336 167.063 Q 444.904 167.063 444.544 166.679 L 444.544 166.679 L 444.544 166.679 Q 444.304 166.415 444.304 166.055 L 444.304 166.055 L 444.304 166.055 Q 444.304 165.479 444.808 165.143 L 444.808 165.143 L 444.808 165.143 Q 445.672 164.495 446.992 164.123 L 446.992 164.123 L 446.992 164.123 Q 448.312 163.751 449.752 163.751 L 449.752 163.751 L 449.752 163.751 Q 452.464 163.751 454 164.975 L 454 164.975 L 454 164.975 Q 455.536 166.199 455.536 168.359 L 455.536 168.359 L 455.536 174.791 L 455.536 174.791 Q 455.536 175.343 455.176 175.667 L 455.176 175.667 L 455.176 175.667 Q 454.816 175.991 454.192 175.991 L 454.192 175.991 L 454.192 175.991 Q 453.568 175.991 453.22 175.679 L 453.22 175.679 L 453.22 175.679 Q 452.872 175.367 452.872 174.815 L 452.872 174.815 L 452.872 174.359 L 452.872 174.359 Q 451.456 175.991 448.672 175.991 L 448.672 175.991 L 448.672 175.991 Z  M 449.248 174.023 L 449.248 174.023 Q 450.88 174.023 451.84 173.483 L 451.84 173.483 L 451.84 173.483 Q 452.8 172.943 452.8 172.007 L 452.8 172.007 L 452.8 172.007 Q 452.8 171.095 451.864 170.567 L 451.864 170.567 L 451.864 170.567 Q 450.928 170.039 449.296 170.039 L 449.296 170.039 L 449.296 170.039 Q 447.88 170.039 447.1 170.567 L 447.1 170.567 L 447.1 170.567 Q 446.32 171.095 446.32 172.031 L 446.32 172.031 L 446.32 172.031 Q 446.32 172.991 447.076 173.507 L 447.076 173.507 L 447.076 173.507 Q 447.832 174.023 449.248 174.023 L 449.248 174.023 L 449.248 174.023 Z  M 472.72 172.895 L 472.72 172.895 Q 473.08 173.183 473.08 173.567 L 473.08 173.567 L 473.08 173.567 Q 473.08 173.975 472.768 174.383 L 472.768 174.383 L 472.768 174.383 Q 472.264 175.127 471.328 175.559 L 471.328 175.559 L 471.328 175.559 Q 470.392 175.991 469.264 175.991 L 469.264 175.991 L 469.264 175.991 Q 467.464 175.991 466.432 174.983 L 466.432 174.983 L 466.432 174.983 Q 465.4 173.975 465.4 172.223 L 465.4 172.223 L 465.4 166.127 L 464.32 166.127 L 464.32 166.127 Q 463.672 166.127 463.3 165.839 L 463.3 165.839 L 463.3 165.839 Q 462.928 165.551 462.928 165.071 L 462.928 165.071 L 462.928 165.071 Q 462.928 164.567 463.3 164.279 L 463.3 164.279 L 463.3 164.279 Q 463.672 163.991 464.32 163.991 L 464.32 163.991 L 465.4 163.991 L 465.4 160.199 L 465.4 160.199 Q 465.4 159.599 465.76 159.263 L 465.76 159.263 L 465.76 159.263 Q 466.12 158.927 466.744 158.927 L 466.744 158.927 L 466.744 158.927 Q 467.368 158.927 467.728 159.263 L 467.728 159.263 L 467.728 159.263 Q 468.088 159.599 468.088 160.199 L 468.088 160.199 L 468.088 163.991 L 470.704 163.991 L 470.704 163.991 Q 471.328 163.991 471.7 164.279 L 471.7 164.279 L 471.7 164.279 Q 472.072 164.567 472.072 165.071 L 472.072 165.071 L 472.072 165.071 Q 472.072 165.551 471.712 165.839 L 471.712 165.839 L 471.712 165.839 Q 471.352 166.127 470.704 166.127 L 470.704 166.127 L 468.088 166.127 L 468.088 172.439 L 468.088 172.439 Q 468.088 173.087 468.448 173.459 L 468.448 173.459 L 468.448 173.459 Q 468.808 173.831 469.456 173.831 L 469.456 173.831 L 469.456 173.831 Q 470.344 173.831 471.04 173.135 L 471.04 173.135 L 471.04 173.135 Q 471.592 172.631 472.048 172.631 L 472.048 172.631 L 472.048 172.631 Q 472.432 172.631 472.72 172.895 L 472.72 172.895 L 472.72 172.895 Z  M 487.408 175.991 L 487.408 175.991 Q 485.344 175.991 483.82 175.259 L 483.82 175.259 L 483.82 175.259 Q 482.296 174.527 481.492 173.159 L 481.492 173.159 L 481.492 173.159 Q 480.688 171.791 480.688 169.919 L 480.688 169.919 L 480.688 169.919 Q 480.688 167.015 482.416 165.383 L 482.416 165.383 L 482.416 165.383 Q 484.144 163.751 487.216 163.751 L 487.216 163.751 L 487.216 163.751 Q 489.112 163.751 490.576 164.351 L 490.576 164.351 L 490.576 164.351 Q 492.04 164.951 492.856 166.019 L 492.856 166.019 L 492.856 166.019 Q 493.672 167.087 493.672 168.455 L 493.672 168.455 L 493.672 168.455 Q 493.672 169.559 493 170.159 L 493 170.159 L 493 170.159 Q 492.328 170.759 491.104 170.759 L 491.104 170.759 L 483.328 170.759 L 483.328 170.759 Q 483.328 172.247 484.384 173.063 L 484.384 173.063 L 484.384 173.063 Q 485.44 173.879 487.408 173.879 L 487.408 173.879 L 487.408 173.879 Q 488.536 173.879 489.4 173.639 L 489.4 173.639 L 489.4 173.639 Q 490.264 173.399 491.008 172.871 L 491.008 172.871 L 491.008 172.871 Q 491.704 172.415 492.064 172.415 L 492.064 172.415 L 492.064 172.415 Q 492.376 172.415 492.712 172.751 L 492.712 172.751 L 492.712 172.751 Q 493.096 173.111 493.096 173.543 L 493.096 173.543 L 493.096 173.543 Q 493.096 173.999 492.688 174.311 L 492.688 174.311 L 492.688 174.311 Q 490.672 175.991 487.408 175.991 L 487.408 175.991 L 487.408 175.991 Z  M 483.376 168.815 L 490.288 168.815 L 490.288 168.815 Q 490.696 168.815 490.888 168.647 L 490.888 168.647 L 490.888 168.647 Q 491.08 168.479 491.08 168.071 L 491.08 168.071 L 491.08 168.071 Q 491.08 167.087 490.024 166.475 L 490.024 166.475 L 490.024 166.475 Q 488.968 165.863 487.216 165.863 L 487.216 165.863 L 487.216 165.863 Q 485.44 165.863 484.408 166.667 L 484.408 166.667 L 484.408 166.667 Q 483.376 167.471 483.376 168.815 L 483.376 168.815 L 483.376 168.815 Z  M 299.44 174.695 L 299.44 162.311 L 299.44 162.311 Q 299.44 160.751 300.352 159.851 L 300.352 159.851 L 300.352 159.851 Q 301.264 158.951 302.92 158.951 L 302.92 158.951 L 307.264 158.951 L 307.264 158.951 Q 310.744 158.951 312.508 160.343 L 312.508 160.343 L 312.508 160.343 Q 314.272 161.735 314.272 164.447 L 314.272 164.447 L 314.272 164.447 Q 314.272 167.015 312.712 168.431 L 312.712 168.431 L 312.712 168.431 Q 311.152 169.847 308.392 169.847 L 308.392 169.847 L 312.376 173.879 L 312.376 173.879 Q 312.76 174.263 312.76 174.719 L 312.76 174.719 L 312.76 174.719 Q 312.76 175.223 312.28 175.631 L 312.28 175.631 L 312.28 175.631 Q 311.824 175.967 311.392 175.967 L 311.392 175.967 L 311.392 175.967 Q 310.792 175.967 310.24 175.391 L 310.24 175.391 L 304.96 169.919 L 302.248 169.919 L 302.248 174.695 L 302.248 174.695 Q 302.248 175.295 301.852 175.643 L 301.852 175.643 L 301.852 175.643 Q 301.456 175.991 300.832 175.991 L 300.832 175.991 L 300.832 175.991 Q 300.184 175.991 299.812 175.643 L 299.812 175.643 L 299.812 175.643 Q 299.44 175.295 299.44 174.695 L 299.44 174.695 L 299.44 174.695 Z  M 302.248 167.711 L 307.24 167.711 L 307.24 167.711 Q 309.544 167.711 310.492 166.979 L 310.492 166.979 L 310.492 166.979 Q 311.44 166.247 311.44 164.447 L 311.44 164.447 L 311.44 164.447 Q 311.44 162.695 310.408 161.927 L 310.408 161.927 L 310.408 161.927 Q 309.376 161.159 307.24 161.159 L 307.24 161.159 L 303.328 161.159 L 303.328 161.159 Q 302.824 161.159 302.536 161.483 L 302.536 161.483 L 302.536 161.483 Q 302.248 161.807 302.248 162.383 L 302.248 162.383 L 302.248 167.711 L 302.248 167.711 Z  M 328.432 175.991 L 328.432 175.991 Q 326.368 175.991 324.844 175.259 L 324.844 175.259 L 324.844 175.259 Q 323.32 174.527 322.516 173.159 L 322.516 173.159 L 322.516 173.159 Q 321.712 171.791 321.712 169.919 L 321.712 169.919 L 321.712 169.919 Q 321.712 167.015 323.44 165.383 L 323.44 165.383 L 323.44 165.383 Q 325.168 163.751 328.24 163.751 L 328.24 163.751 L 328.24 163.751 Q 330.136 163.751 331.6 164.351 L 331.6 164.351 L 331.6 164.351 Q 333.064 164.951 333.88 166.019 L 333.88 166.019 L 333.88 166.019 Q 334.696 167.087 334.696 168.455 L 334.696 168.455 L 334.696 168.455 Q 334.696 169.559 334.024 170.159 L 334.024 170.159 L 334.024 170.159 Q 333.352 170.759 332.128 170.759 L 332.128 170.759 L 324.352 170.759 L 324.352 170.759 Q 324.352 172.247 325.408 173.063 L 325.408 173.063 L 325.408 173.063 Q 326.464 173.879 328.432 173.879 L 328.432 173.879 L 328.432 173.879 Q 329.56 173.879 330.424 173.639 L 330.424 173.639 L 330.424 173.639 Q 331.288 173.399 332.032 172.871 L 332.032 172.871 L 332.032 172.871 Q 332.728 172.415 333.088 172.415 L 333.088 172.415 L 333.088 172.415 Q 333.4 172.415 333.736 172.751 L 333.736 172.751 L 333.736 172.751 Q 334.12 173.111 334.12 173.543 L 334.12 173.543 L 334.12 173.543 Q 334.12 173.999 333.712 174.311 L 333.712 174.311 L 333.712 174.311 Q 331.696 175.991 328.432 175.991 L 328.432 175.991 L 328.432 175.991 Z  M 324.4 168.815 L 331.312 168.815 L 331.312 168.815 Q 331.72 168.815 331.912 168.647 L 331.912 168.647 L 331.912 168.647 Q 332.104 168.479 332.104 168.071 L 332.104 168.071 L 332.104 168.071 Q 332.104 167.087 331.048 166.475 L 331.048 166.475 L 331.048 166.475 Q 329.992 165.863 328.24 165.863 L 328.24 165.863 L 328.24 165.863 Q 326.464 165.863 325.432 166.667 L 325.432 166.667 L 325.432 166.667 Q 324.4 167.471 324.4 168.815 L 324.4 168.815 L 324.4 168.815 Z  M 346.984 175.991 L 346.984 175.991 Q 344.704 175.991 343.336 174.911 L 343.336 174.911 L 343.336 174.911 Q 341.968 173.831 341.968 172.031 L 341.968 172.031 L 341.968 172.031 Q 341.968 170.255 343.42 169.199 L 343.42 169.199 L 343.42 169.199 Q 344.872 168.143 347.344 168.143 L 347.344 168.143 L 347.344 168.143 Q 349.744 168.143 351.088 169.247 L 351.088 169.247 L 351.088 168.335 L 351.088 168.335 Q 351.088 167.135 350.332 166.499 L 350.332 166.499 L 350.332 166.499 Q 349.576 165.863 348.112 165.863 L 348.112 165.863 L 348.112 165.863 Q 346.048 165.863 344.56 166.775 L 344.56 166.775 L 344.56 166.775 Q 344.056 167.063 343.648 167.063 L 343.648 167.063 L 343.648 167.063 Q 343.216 167.063 342.856 166.679 L 342.856 166.679 L 342.856 166.679 Q 342.616 166.415 342.616 166.055 L 342.616 166.055 L 342.616 166.055 Q 342.616 165.479 343.12 165.143 L 343.12 165.143 L 343.12 165.143 Q 343.984 164.495 345.304 164.123 L 345.304 164.123 L 345.304 164.123 Q 346.624 163.751 348.064 163.751 L 348.064 163.751 L 348.064 163.751 Q 350.776 163.751 352.312 164.975 L 352.312 164.975 L 352.312 164.975 Q 353.848 166.199 353.848 168.359 L 353.848 168.359 L 353.848 174.791 L 353.848 174.791 Q 353.848 175.343 353.488 175.667 L 353.488 175.667 L 353.488 175.667 Q 353.128 175.991 352.504 175.991 L 352.504 175.991 L 352.504 175.991 Q 351.88 175.991 351.532 175.679 L 351.532 175.679 L 351.532 175.679 Q 351.184 175.367 351.184 174.815 L 351.184 174.815 L 351.184 174.359 L 351.184 174.359 Q 349.768 175.991 346.984 175.991 L 346.984 175.991 L 346.984 175.991 Z  M 347.56 174.023 L 347.56 174.023 Q 349.192 174.023 350.152 173.483 L 350.152 173.483 L 350.152 173.483 Q 351.112 172.943 351.112 172.007 L 351.112 172.007 L 351.112 172.007 Q 351.112 171.095 350.176 170.567 L 350.176 170.567 L 350.176 170.567 Q 349.24 170.039 347.608 170.039 L 347.608 170.039 L 347.608 170.039 Q 346.192 170.039 345.412 170.567 L 345.412 170.567 L 345.412 170.567 Q 344.632 171.095 344.632 172.031 L 344.632 172.031 L 344.632 172.031 Q 344.632 172.991 345.388 173.507 L 345.388 173.507 L 345.388 173.507 Q 346.144 174.023 347.56 174.023 L 347.56 174.023 L 347.56 174.023 Z  M 364.144 175.991 L 364.144 175.991 Q 363.52 175.991 363.16 175.655 L 363.16 175.655 L 363.16 175.655 Q 362.8 175.319 362.8 174.719 L 362.8 174.719 L 362.8 158.807 L 362.8 158.807 Q 362.8 158.207 363.16 157.871 L 363.16 157.871 L 363.16 157.871 Q 363.52 157.535 364.144 157.535 L 364.144 157.535 L 364.144 157.535 Q 364.768 157.535 365.128 157.871 L 365.128 157.871 L 365.128 157.871 Q 365.488 158.207 365.488 158.807 L 365.488 158.807 L 365.488 174.719 L 365.488 174.719 Q 365.488 175.295 365.116 175.643 L 365.116 175.643 L 365.116 175.643 Q 364.744 175.991 364.144 175.991 L 364.144 175.991 L 364.144 175.991 Z  M 264.76 175.967 L 264.76 175.967 Q 264.136 175.967 263.776 175.631 L 263.776 175.631 L 263.776 175.631 Q 263.416 175.295 263.416 174.695 L 263.416 174.695 L 263.416 165.959 L 263.416 165.959 Q 263.416 162.551 265.36 160.631 L 265.36 160.631 L 265.36 160.631 Q 267.304 158.711 270.76 158.711 L 270.76 158.711 L 270.76 158.711 Q 273.016 158.711 274.672 159.587 L 274.672 159.587 L 274.672 159.587 Q 276.328 160.463 277.204 162.095 L 277.204 162.095 L 277.204 162.095 Q 278.08 163.727 278.08 165.959 L 278.08 165.959 L 278.08 174.695 L 278.08 174.695 Q 278.08 175.295 277.72 175.631 L 277.72 175.631 L 277.72 175.631 Q 277.36 175.967 276.736 175.967 L 276.736 175.967 L 276.736 175.967 Q 276.112 175.967 275.728 175.619 L 275.728 175.619 L 275.728 175.619 Q 275.344 175.271 275.344 174.695 L 275.344 174.695 L 275.344 170.279 L 266.152 170.279 L 266.152 174.695 L 266.152 174.695 Q 266.152 175.271 265.768 175.619 L 265.768 175.619 L 265.768 175.619 Q 265.384 175.967 264.76 175.967 L 264.76 175.967 L 264.76 175.967 Z  M 266.152 168.143 L 275.344 168.143 L 275.344 165.887 L 275.344 165.887 Q 275.344 163.439 274.18 162.167 L 274.18 162.167 L 274.18 162.167 Q 273.016 160.895 270.76 160.895 L 270.76 160.895 L 270.76 160.895 Q 268.48 160.895 267.316 162.155 L 267.316 162.155 L 267.316 162.155 Q 266.152 163.415 266.152 165.887 L 266.152 165.887 L 266.152 168.143 L 266.152 168.143 Z " fill="rgb(70,70,70)"/></g></svg>