<?xml version="1.0" encoding="UTF-8" standalone="no"?><!-- Generator: Gravit.io --><svg xmlns="http://www.w3.org/2000/svg" xmlns:xlink="http://www.w3.org/1999/xlink" style="isolation:isolate" viewBox="305.161 495.881 25.681 40.445" width="25.681pt" height="40.445pt"><path d=" M 307.043 503.491 L 319.037 503.491 L 319.037 503.491 Q 318.122 501.098 315.931 500.264 L 315.931 500.264 L 315.931 500.264 Q 313.739 499.431 309.786 499.431 L 309.786 499.431 L 305.161 499.431 L 307.043 495.881 L 330.842 495.881 L 329.336 499.431 L 322.264 499.431 L 322.264 499.431 Q 323.527 501.071 324.012 503.491 L 324.012 503.491 L 330.842 503.491 L 329.336 507.068 L 324.065 507.068 L 324.065 507.068 Q 323.527 511.236 320.381 513.885 L 320.381 513.885 L 320.381 513.885 Q 317.235 516.534 312.502 516.829 L 312.502 516.829 L 326.27 536.326 L 320.193 536.326 L 306.559 517.797 L 306.559 514.167 L 310.162 514.167 L 310.162 514.167 Q 315.756 514.167 318.203 510.779 L 318.203 510.779 L 318.203 510.779 Q 319.44 509.058 319.44 507.095 L 319.44 507.095 L 319.44 507.068 L 305.161 507.068 L 307.043 503.491 L 307.043 503.491 Z " fill="rgb(47,72,88)"/></svg>