<?xml version="1.0" encoding="utf-8"?>
<!-- Generator: Adobe Illustrator 17.1.0, SVG Export Plug-In . SVG Version: 6.00 Build 0)  -->
<!DOCTYPE svg PUBLIC "-//W3C//DTD SVG 1.1//EN" "http://www.w3.org/Graphics/SVG/1.1/DTD/svg11.dtd">
<svg version="1.1" id="Layer_1" xmlns="http://www.w3.org/2000/svg" xmlns:xlink="http://www.w3.org/1999/xlink" x="0px" y="0px"
	 viewBox="0 0 56.7 115.3" enable-background="new 0 0 56.7 115.3" xml:space="preserve">
<g>
	<g>
		<path fill="#FFFFFF" d="M0,113.3v-3.4h0.6c0.2,0,0.4,0,0.5,0c0.1,0,0.2,0.1,0.3,0.1c0.1,0.1,0.2,0.2,0.3,0.3
			c0.1,0.1,0.1,0.3,0.1,0.5c0,0.3-0.1,0.6-0.3,0.7c-0.2,0.2-0.5,0.2-0.9,0.2H0.3v1.5H0z M0.3,111.4h0.2c0.4,0,0.6,0,0.8-0.1
			c0.1-0.1,0.2-0.3,0.2-0.5c0-0.1,0-0.2,0-0.3c0-0.1-0.1-0.2-0.1-0.2c-0.1-0.1-0.1-0.1-0.2-0.1c-0.1,0-0.3,0-0.5,0H0.3V111.4z"/>
		<path fill="#FFFFFF" d="M2.9,113.3l1.5-3.6l1.4,3.6H5.5L5,112.1H3.6l-0.5,1.2H2.9z M3.7,111.8h1.2l-0.6-1.5L3.7,111.8z"/>
		<path fill="#FFFFFF" d="M7.1,112.7l0.3-0.1c0,0.2,0.1,0.3,0.3,0.4c0.1,0.1,0.3,0.1,0.4,0.1c0.2,0,0.4-0.1,0.5-0.2
			c0.1-0.1,0.2-0.3,0.2-0.5c0-0.2,0-0.3-0.1-0.4c-0.1-0.1-0.3-0.2-0.5-0.4c-0.3-0.2-0.6-0.3-0.7-0.5c-0.1-0.1-0.2-0.3-0.2-0.5
			c0-0.2,0.1-0.4,0.2-0.6c0.2-0.2,0.4-0.2,0.6-0.2c0.2,0,0.3,0,0.4,0.1c0.1,0.1,0.2,0.2,0.3,0.3l-0.2,0.1c0-0.1-0.1-0.2-0.2-0.2
			C8.4,110,8.3,110,8.2,110c-0.2,0-0.3,0-0.4,0.1c-0.1,0.1-0.2,0.2-0.2,0.4c0,0.2,0.2,0.5,0.6,0.7c0.1,0,0.1,0.1,0.2,0.1
			c0.3,0.2,0.5,0.3,0.6,0.5c0.1,0.1,0.1,0.3,0.1,0.6c0,0.3-0.1,0.6-0.3,0.7c-0.2,0.2-0.4,0.3-0.7,0.3c-0.2,0-0.4-0.1-0.6-0.2
			C7.4,113.1,7.2,112.9,7.1,112.7z"/>
		<path fill="#FFFFFF" d="M10.7,112.7l0.3-0.1c0,0.2,0.1,0.3,0.3,0.4c0.1,0.1,0.3,0.1,0.4,0.1c0.2,0,0.4-0.1,0.5-0.2
			c0.1-0.1,0.2-0.3,0.2-0.5c0-0.2,0-0.3-0.1-0.4c-0.1-0.1-0.3-0.2-0.5-0.4c-0.3-0.2-0.6-0.3-0.7-0.5c-0.1-0.1-0.2-0.3-0.2-0.5
			c0-0.2,0.1-0.4,0.2-0.6c0.2-0.2,0.4-0.2,0.6-0.2c0.2,0,0.3,0,0.4,0.1c0.1,0.1,0.2,0.2,0.3,0.3l-0.2,0.1c0-0.1-0.1-0.2-0.2-0.2
			c-0.1-0.1-0.2-0.1-0.3-0.1c-0.2,0-0.3,0-0.4,0.1c-0.1,0.1-0.2,0.2-0.2,0.4c0,0.2,0.2,0.5,0.6,0.7c0.1,0,0.1,0.1,0.2,0.1
			c0.3,0.2,0.5,0.3,0.6,0.5c0.1,0.1,0.1,0.3,0.1,0.6c0,0.3-0.1,0.6-0.3,0.7c-0.2,0.2-0.4,0.3-0.7,0.3c-0.2,0-0.4-0.1-0.6-0.2
			C11,113.1,10.8,112.9,10.7,112.7z"/>
		<path fill="#FFFFFF" d="M14.6,113.3v-3.4h0.3v3.4H14.6z"/>
		<path fill="#FFFFFF" d="M20.5,111.5c0,0.2,0,0.5-0.1,0.7c-0.1,0.2-0.2,0.4-0.4,0.6c-0.2,0.2-0.4,0.3-0.6,0.4
			c-0.2,0.1-0.5,0.1-0.7,0.1c-0.2,0-0.5,0-0.7-0.1c-0.2-0.1-0.4-0.2-0.6-0.4c-0.2-0.2-0.3-0.4-0.4-0.6c-0.1-0.2-0.1-0.4-0.1-0.7
			c0-0.2,0-0.5,0.1-0.7c0.1-0.2,0.2-0.4,0.4-0.6c0.2-0.2,0.4-0.3,0.6-0.4c0.2-0.1,0.5-0.1,0.7-0.1c0.3,0,0.5,0,0.7,0.1
			c0.2,0.1,0.4,0.2,0.6,0.4c0.2,0.2,0.3,0.4,0.4,0.6C20.4,111.1,20.5,111.3,20.5,111.5z M18.6,113.1c0.2,0,0.4,0,0.6-0.1
			c0.2-0.1,0.3-0.2,0.5-0.3c0.1-0.1,0.3-0.3,0.3-0.5c0.1-0.2,0.1-0.4,0.1-0.6c0-0.2,0-0.4-0.1-0.6c-0.1-0.2-0.2-0.3-0.3-0.5
			c-0.1-0.1-0.3-0.3-0.5-0.3c-0.2-0.1-0.4-0.1-0.6-0.1s-0.4,0-0.6,0.1c-0.2,0.1-0.3,0.2-0.5,0.3c-0.1,0.1-0.3,0.3-0.3,0.5
			c-0.1,0.2-0.1,0.4-0.1,0.6c0,0.2,0,0.4,0.1,0.6c0.1,0.2,0.2,0.3,0.3,0.5c0.1,0.1,0.3,0.3,0.5,0.3C18.2,113,18.4,113.1,18.6,113.1z
			"/>
		<path fill="#FFFFFF" d="M22.4,113.3v-3.6l2.4,2.9v-2.7h0.3v3.5l-2.4-2.9v2.8H22.4z"/>
		<path fill="#FFFFFF" d="M29.3,113.3l1.5-3.6l1.4,3.6h-0.3l-0.4-1.2H30l-0.5,1.2H29.3z M30.1,111.8h1.2l-0.6-1.5L30.1,111.8z"/>
		<path fill="#FFFFFF" d="M34.1,113.3v-3.1h-0.9v-0.3h2.2v0.3h-0.9v3.1H34.1z"/>
		<path fill="#FFFFFF" d="M40.5,113.4l-1.2-3.6h0.3l0.9,2.7l0.9-2.9l0.9,2.9l0.8-2.7h0.3l-1.2,3.6l-0.9-2.9L40.5,113.4z"/>
		<path fill="#FFFFFF" d="M48.7,111.5c0,0.2,0,0.5-0.1,0.7c-0.1,0.2-0.2,0.4-0.4,0.6c-0.2,0.2-0.4,0.3-0.6,0.4
			c-0.2,0.1-0.5,0.1-0.7,0.1c-0.2,0-0.5,0-0.7-0.1c-0.2-0.1-0.4-0.2-0.6-0.4c-0.2-0.2-0.3-0.4-0.4-0.6c-0.1-0.2-0.1-0.4-0.1-0.7
			c0-0.2,0-0.5,0.1-0.7c0.1-0.2,0.2-0.4,0.4-0.6c0.2-0.2,0.4-0.3,0.6-0.4c0.2-0.1,0.5-0.1,0.7-0.1c0.3,0,0.5,0,0.7,0.1
			c0.2,0.1,0.4,0.2,0.6,0.4c0.2,0.2,0.3,0.4,0.4,0.6C48.7,111.1,48.7,111.3,48.7,111.5z M46.9,113.1c0.2,0,0.4,0,0.6-0.1
			c0.2-0.1,0.3-0.2,0.5-0.3c0.1-0.1,0.3-0.3,0.3-0.5c0.1-0.2,0.1-0.4,0.1-0.6c0-0.2,0-0.4-0.1-0.6c-0.1-0.2-0.2-0.3-0.3-0.5
			c-0.1-0.1-0.3-0.3-0.5-0.3c-0.2-0.1-0.4-0.1-0.6-0.1c-0.2,0-0.4,0-0.6,0.1c-0.2,0.1-0.3,0.2-0.5,0.3c-0.1,0.1-0.3,0.3-0.3,0.5
			c-0.1,0.2-0.1,0.4-0.1,0.6c0,0.2,0,0.4,0.1,0.6c0.1,0.2,0.2,0.3,0.3,0.5c0.1,0.1,0.3,0.3,0.5,0.3C46.5,113,46.7,113.1,46.9,113.1z
			"/>
		<path fill="#FFFFFF" d="M52.7,113.3h-0.4l-1.2-1.6h-0.2v1.6h-0.3v-3.4h0.6c0.4,0,0.7,0.1,0.8,0.2c0.2,0.2,0.3,0.4,0.3,0.7
			c0,0.3-0.1,0.5-0.2,0.6c-0.2,0.2-0.4,0.2-0.7,0.2L52.7,113.3z M50.9,110.1v1.3h0.3c0.3,0,0.5,0,0.6-0.1c0.1-0.1,0.2-0.3,0.2-0.5
			c0-0.2-0.1-0.4-0.2-0.5c-0.1-0.1-0.3-0.1-0.6-0.1H50.9z"/>
		<path fill="#FFFFFF" d="M54.3,113.3v-3.4h0.3v1.6l1.6-1.6h0.4l-1.6,1.6l1.7,1.8h-0.5l-1.6-1.7v1.7H54.3z"/>
	</g>
	<g>
		<rect x="0" y="0" fill="#FFDF8F" width="56.7" height="105.4"/>
		<g>
			<g>
				<path fill-rule="evenodd" clip-rule="evenodd" fill="#EC1C24" d="M18.4,27c0,0.4-0.3,0.7-0.8,0.7c-0.4,0-0.8-0.3-0.8-0.7
					c0-0.4,0.3-0.7,0.8-0.7C18.1,26.2,18.4,26.6,18.4,27"/>
				<path fill-rule="evenodd" clip-rule="evenodd" fill="#231F20" d="M14.6,54c0.7,0,1.3-0.6,1.3-1.2c0-0.7-0.6-1.2-1.3-1.2
					c-0.7,0-1.3,0.6-1.3,1.2C13.3,53.5,13.9,54,14.6,54z M14.6,51.4c0.7,0,1.2-0.5,1.2-1.2c0-0.7-0.5-1.2-1.2-1.2
					c-0.7,0-1.2,0.5-1.2,1.2C13.4,50.9,13.9,51.4,14.6,51.4z M14.6,48.8c0.6,0,1.2-0.5,1.2-1.1c0-0.6-0.5-1.1-1.2-1.1
					c-0.6,0-1.2,0.5-1.2,1.1C13.5,48.3,14,48.8,14.6,48.8z M14.6,46.1c0.6,0,1.1-0.5,1.1-1.1c0-0.6-0.5-1.1-1.1-1.1
					c-0.6,0-1.1,0.5-1.1,1.1C13.5,45.6,14,46.1,14.6,46.1z M14.6,43.5c0.6,0,1-0.5,1-1c0-0.6-0.5-1-1-1c-0.6,0-1,0.5-1,1
					C13.6,43,14,43.5,14.6,43.5z M14.6,40.9c0.6,0,1-0.4,1-1c0-0.5-0.4-1-1-1c-0.5,0-1,0.4-1,1C13.6,40.4,14.1,40.9,14.6,40.9z
					 M14.6,38.2c0.5,0,0.9-0.4,0.9-0.9c0-0.5-0.4-0.9-0.9-0.9c-0.5,0-0.9,0.4-0.9,0.9C13.7,37.8,14.1,38.2,14.6,38.2z M14.6,35.6
					c0.5,0,0.9-0.4,0.9-0.9c0-0.5-0.4-0.9-0.9-0.9c-0.5,0-0.9,0.4-0.9,0.9C13.7,35.2,14.1,35.6,14.6,35.6z M18.4,64.3
					c0.5-0.2,0.8-0.7,0.8-1.3c0-0.6-0.4-1.1-0.9-1.3c0.5-0.2,0.8-0.7,0.8-1.3c0-0.6-0.4-1.1-1-1.3c0.5-0.2,0.9-0.7,0.9-1.3
					c0-0.7-0.5-1.2-1.1-1.3c0.6-0.1,1.1-0.6,1.1-1.3c0-0.7-0.6-1.3-1.3-1.3c-0.7,0-1.3,0.6-1.3,1.3c0,0.6,0.5,1.2,1.1,1.3
					c-0.6,0.1-1.1,0.7-1.1,1.3c0,0.6,0.4,1.1,0.9,1.3c-0.6,0.2-1,0.7-1,1.3c0,0.6,0.3,1,0.8,1.3c-0.5,0.2-0.9,0.7-0.9,1.3
					c0,0.5,0.3,1,0.8,1.3c-0.5,0.3-0.8,0.7-0.8,1.3c0,0.8,0.7,1.5,1.5,1.5c0.8,0,1.5-0.7,1.5-1.5C19.2,65.1,18.9,64.6,18.4,64.3z
					 M17.7,54c0.7,0,1.3-0.6,1.3-1.2c0-0.7-0.6-1.2-1.3-1.2c-0.7,0-1.3,0.6-1.3,1.2C16.4,53.5,17,54,17.7,54z M17.7,51.4
					c0.7,0,1.2-0.5,1.2-1.2c0-0.7-0.5-1.2-1.2-1.2c-0.7,0-1.2,0.5-1.2,1.2C16.5,50.9,17,51.4,17.7,51.4z M17.7,48.8
					c0.6,0,1.2-0.5,1.2-1.1c0-0.6-0.5-1.1-1.2-1.1c-0.6,0-1.2,0.5-1.2,1.1C16.5,48.3,17,48.8,17.7,48.8z M17.7,46.1
					c0.6,0,1.1-0.5,1.1-1.1c0-0.6-0.5-1.1-1.1-1.1c-0.6,0-1.1,0.5-1.1,1.1C16.6,45.6,17.1,46.1,17.7,46.1z M17.7,43.5
					c0.6,0,1-0.5,1-1c0-0.6-0.5-1-1-1c-0.6,0-1,0.5-1,1C16.6,43,17.1,43.5,17.7,43.5z M17.7,40.9c0.5,0,1-0.4,1-1c0-0.5-0.4-1-1-1
					c-0.5,0-1,0.4-1,1C16.7,40.4,17.1,40.9,17.7,40.9z M17.7,38.2c0.5,0,0.9-0.4,0.9-0.9c0-0.5-0.4-0.9-0.9-0.9
					c-0.5,0-0.9,0.4-0.9,0.9C16.7,37.8,17.1,38.2,17.7,38.2z M17.7,35.6c0.5,0,0.9-0.4,0.9-0.9c0-0.5-0.4-0.9-0.9-0.9
					c-0.5,0-0.9,0.4-0.9,0.9C16.8,35.2,17.2,35.6,17.7,35.6z M17.7,33c0.5,0,0.8-0.4,0.8-0.8c0-0.4-0.4-0.8-0.8-0.8
					c-0.5,0-0.8,0.4-0.8,0.8C16.8,32.6,17.2,33,17.7,33z M17.7,30.4c0.4,0,0.8-0.3,0.8-0.8c0-0.4-0.3-0.8-0.8-0.8
					c-0.4,0-0.8,0.3-0.8,0.8C16.9,30,17.2,30.4,17.7,30.4z M21.4,64.3c0.5-0.2,0.8-0.7,0.8-1.3c0-0.6-0.4-1.1-0.9-1.3
					c0.5-0.2,0.8-0.7,0.8-1.3c0-0.6-0.4-1.1-1-1.3c0.5-0.2,0.9-0.7,0.9-1.3c0-0.7-0.5-1.2-1.1-1.3c0.6-0.1,1.1-0.6,1.1-1.3
					c0-0.7-0.6-1.3-1.3-1.3c-0.7,0-1.3,0.6-1.3,1.3c0,0.6,0.5,1.2,1.1,1.3c-0.6,0.1-1.1,0.7-1.1,1.3c0,0.6,0.4,1.1,0.9,1.3
					c-0.6,0.2-1,0.7-1,1.3c0,0.6,0.3,1,0.8,1.3c-0.5,0.2-0.9,0.7-0.9,1.3c0,0.5,0.3,1,0.8,1.3c-0.5,0.3-0.8,0.7-0.8,1.3
					c0,0.8,0.7,1.5,1.5,1.5c0.8,0,1.5-0.7,1.5-1.5C22.2,65.1,21.9,64.6,21.4,64.3z M20.7,54c0.7,0,1.3-0.6,1.3-1.2
					c0-0.7-0.6-1.2-1.3-1.2c-0.7,0-1.3,0.6-1.3,1.2C19.5,53.5,20,54,20.7,54z M20.7,51.4c0.7,0,1.2-0.5,1.2-1.2
					c0-0.7-0.5-1.2-1.2-1.2c-0.7,0-1.2,0.5-1.2,1.2C19.5,50.9,20.1,51.4,20.7,51.4z M20.7,48.8c0.6,0,1.2-0.5,1.2-1.1
					c0-0.6-0.5-1.1-1.2-1.1c-0.6,0-1.1,0.5-1.1,1.1C19.6,48.3,20.1,48.8,20.7,48.8z M20.7,46.1c0.6,0,1.1-0.5,1.1-1.1
					c0-0.6-0.5-1.1-1.1-1.1c-0.6,0-1.1,0.5-1.1,1.1C19.6,45.6,20.1,46.1,20.7,46.1z M20.7,43.5c0.6,0,1-0.5,1-1c0-0.6-0.5-1-1-1
					c-0.6,0-1,0.5-1,1C19.7,43,20.1,43.5,20.7,43.5z M20.7,40.9c0.5,0,1-0.4,1-1c0-0.5-0.4-1-1-1c-0.5,0-1,0.4-1,1
					C19.7,40.4,20.2,40.9,20.7,40.9z M24.5,64.3c0.4-0.2,0.8-0.7,0.8-1.3c0-0.6-0.4-1.1-0.9-1.3c0.5-0.2,0.8-0.7,0.8-1.3
					c0-0.6-0.4-1.1-1-1.3c0.5-0.2,0.9-0.7,0.9-1.3c0-0.7-0.5-1.2-1.1-1.3c0.6-0.1,1.1-0.6,1.1-1.3c0-0.7-0.6-1.3-1.3-1.3
					c-0.7,0-1.3,0.6-1.3,1.3c0,0.6,0.5,1.2,1.1,1.3c-0.6,0.1-1.1,0.7-1.1,1.3c0,0.6,0.4,1.1,0.9,1.3c-0.6,0.2-1,0.7-1,1.3
					c0,0.6,0.3,1,0.8,1.3c-0.5,0.2-0.9,0.7-0.9,1.3c0,0.5,0.3,1,0.8,1.3c-0.5,0.3-0.8,0.7-0.8,1.3c0,0.8,0.7,1.5,1.5,1.5
					c0.8,0,1.5-0.7,1.5-1.5C25.3,65.1,25,64.6,24.5,64.3z M23.8,54c0.7,0,1.3-0.6,1.3-1.2c0-0.7-0.6-1.2-1.3-1.2
					c-0.7,0-1.3,0.6-1.3,1.2C22.5,53.5,23.1,54,23.8,54z M23.8,51.4c0.7,0,1.2-0.5,1.2-1.2c0-0.7-0.5-1.2-1.2-1.2
					c-0.7,0-1.2,0.5-1.2,1.2C22.6,50.9,23.1,51.4,23.8,51.4z M23.8,48.8c0.6,0,1.2-0.5,1.2-1.1c0-0.6-0.5-1.1-1.2-1.1
					c-0.6,0-1.2,0.5-1.2,1.1C22.6,48.3,23.1,48.8,23.8,48.8z M23.8,46.1c0.6,0,1.1-0.5,1.1-1.1c0-0.6-0.5-1.1-1.1-1.1
					c-0.6,0-1.1,0.5-1.1,1.1C22.7,45.6,23.2,46.1,23.8,46.1z M23.8,43.5c0.6,0,1-0.5,1-1c0-0.6-0.5-1-1-1c-0.6,0-1,0.5-1,1
					C22.7,43,23.2,43.5,23.8,43.5z M23.8,40.9c0.5,0,1-0.4,1-1c0-0.5-0.4-1-1-1c-0.5,0-1,0.4-1,1C22.8,40.4,23.2,40.9,23.8,40.9z
					 M23.8,38.2c0.5,0,0.9-0.4,0.9-0.9c0-0.5-0.4-0.9-0.9-0.9c-0.5,0-0.9,0.4-0.9,0.9C22.8,37.8,23.2,38.2,23.8,38.2z M23.8,35.6
					c0.5,0,0.9-0.4,0.9-0.9c0-0.5-0.4-0.9-0.9-0.9c-0.5,0-0.9,0.4-0.9,0.9C22.9,35.2,23.3,35.6,23.8,35.6z M23.8,33
					c0.5,0,0.8-0.4,0.8-0.8c0-0.4-0.4-0.8-0.8-0.8c-0.5,0-0.8,0.4-0.8,0.8C22.9,32.6,23.3,33,23.8,33z M27.5,64.3
					c0.4-0.2,0.8-0.7,0.8-1.3c0-0.6-0.4-1.1-0.9-1.3c0.5-0.2,0.8-0.7,0.8-1.3c0-0.6-0.4-1.1-1-1.3c0.5-0.2,0.9-0.7,0.9-1.3
					c0-0.7-0.5-1.2-1.1-1.3c0.6-0.1,1.1-0.6,1.1-1.3c0-0.7-0.6-1.3-1.3-1.3c-0.7,0-1.3,0.6-1.3,1.3c0,0.6,0.5,1.2,1.1,1.3
					c-0.6,0.1-1.1,0.7-1.1,1.3c0,0.6,0.4,1.1,0.9,1.3c-0.6,0.2-1,0.7-1,1.3c0,0.6,0.3,1,0.8,1.3c-0.5,0.2-0.9,0.7-0.9,1.3
					c0,0.5,0.3,1,0.8,1.3c-0.5,0.3-0.8,0.7-0.8,1.3c0,0.8,0.7,1.5,1.5,1.5c0.8,0,1.5-0.7,1.5-1.5C28.3,65.1,28,64.6,27.5,64.3z
					 M26.8,54c0.7,0,1.3-0.6,1.3-1.2c0-0.7-0.6-1.2-1.3-1.2c-0.7,0-1.3,0.6-1.3,1.2C25.6,53.5,26.1,54,26.8,54z M26.8,51.4
					c0.7,0,1.2-0.5,1.2-1.2c0-0.7-0.5-1.2-1.2-1.2c-0.7,0-1.2,0.5-1.2,1.2C25.6,50.9,26.2,51.4,26.8,51.4z M26.8,48.8
					c0.6,0,1.2-0.5,1.2-1.1c0-0.6-0.5-1.1-1.2-1.1c-0.6,0-1.2,0.5-1.2,1.1C25.7,48.3,26.2,48.8,26.8,48.8z M26.8,46.1
					c0.6,0,1.1-0.5,1.1-1.1c0-0.6-0.5-1.1-1.1-1.1c-0.6,0-1.1,0.5-1.1,1.1C25.7,45.6,26.2,46.1,26.8,46.1z M26.8,43.5
					c0.6,0,1-0.5,1-1c0-0.6-0.5-1-1-1c-0.6,0-1,0.5-1,1C25.8,43,26.2,43.5,26.8,43.5z M26.8,40.9c0.5,0,1-0.4,1-1c0-0.5-0.4-1-1-1
					c-0.5,0-1,0.4-1,1C25.8,40.4,26.3,40.9,26.8,40.9z M26.8,38.2c0.5,0,0.9-0.4,0.9-0.9c0-0.5-0.4-0.9-0.9-0.9
					c-0.5,0-0.9,0.4-0.9,0.9C25.9,37.8,26.3,38.2,26.8,38.2z M26.8,35.6c0.5,0,0.9-0.4,0.9-0.9c0-0.5-0.4-0.9-0.9-0.9
					c-0.5,0-0.9,0.4-0.9,0.9C25.9,35.2,26.3,35.6,26.8,35.6z M26.8,33c0.5,0,0.8-0.4,0.8-0.8c0-0.4-0.4-0.8-0.8-0.8
					c-0.5,0-0.8,0.4-0.8,0.8C26,32.6,26.4,33,26.8,33z M30.6,64.3c0.5-0.2,0.8-0.7,0.8-1.3c0-0.6-0.4-1.1-0.9-1.3
					c0.5-0.2,0.8-0.7,0.8-1.3c0-0.6-0.4-1.1-1-1.3c0.5-0.2,0.9-0.7,0.9-1.3c0-0.7-0.5-1.2-1.1-1.3c0.6-0.1,1.1-0.6,1.1-1.3
					c0-0.7-0.6-1.3-1.3-1.3c-0.7,0-1.3,0.6-1.3,1.3c0,0.6,0.5,1.2,1.1,1.3c-0.6,0.1-1.1,0.7-1.1,1.3c0,0.6,0.4,1.1,0.9,1.3
					c-0.6,0.2-1,0.7-1,1.3c0,0.6,0.3,1,0.8,1.3c-0.5,0.2-0.9,0.7-0.9,1.3c0,0.5,0.3,1,0.8,1.3c-0.5,0.3-0.8,0.7-0.8,1.3
					c0,0.8,0.7,1.5,1.5,1.5c0.8,0,1.5-0.7,1.5-1.5C31.4,65.1,31.1,64.6,30.6,64.3z M29.9,54c0.7,0,1.3-0.6,1.3-1.2
					c0-0.7-0.6-1.2-1.3-1.2c-0.7,0-1.3,0.6-1.3,1.2C28.6,53.5,29.2,54,29.9,54z M29.9,51.4c0.7,0,1.2-0.5,1.2-1.2
					c0-0.7-0.5-1.2-1.2-1.2c-0.7,0-1.2,0.5-1.2,1.2C28.7,50.9,29.2,51.4,29.9,51.4z M29.9,48.8c0.6,0,1.2-0.5,1.2-1.1
					c0-0.6-0.5-1.1-1.2-1.1c-0.6,0-1.1,0.5-1.1,1.1C28.7,48.3,29.2,48.8,29.9,48.8z M32.9,54c0.7,0,1.3-0.6,1.3-1.2
					c0-0.7-0.6-1.2-1.3-1.2c-0.7,0-1.3,0.6-1.3,1.2C31.7,53.5,32.2,54,32.9,54z M32.9,51.4c0.7,0,1.2-0.5,1.2-1.2
					c0-0.7-0.5-1.2-1.2-1.2c-0.7,0-1.2,0.5-1.2,1.2C31.7,50.9,32.3,51.4,32.9,51.4z M32.9,48.8c0.6,0,1.2-0.5,1.2-1.1
					c0-0.6-0.5-1.1-1.2-1.1c-0.6,0-1.2,0.5-1.2,1.1C31.8,48.3,32.3,48.8,32.9,48.8z M32.9,46.1c0.6,0,1.1-0.5,1.1-1.1
					c0-0.6-0.5-1.1-1.1-1.1c-0.6,0-1.1,0.5-1.1,1.1C31.8,45.6,32.3,46.1,32.9,46.1z M36,54c0.7,0,1.3-0.6,1.3-1.2
					c0-0.7-0.6-1.2-1.3-1.2c-0.7,0-1.3,0.6-1.3,1.2C34.7,53.5,35.3,54,36,54z M36,51.4c0.7,0,1.2-0.5,1.2-1.2c0-0.7-0.5-1.2-1.2-1.2
					c-0.7,0-1.2,0.5-1.2,1.2C34.8,50.9,35.3,51.4,36,51.4z M36,48.8c0.6,0,1.2-0.5,1.2-1.1c0-0.6-0.5-1.1-1.2-1.1s-1.2,0.5-1.2,1.1
					C34.8,48.3,35.3,48.8,36,48.8z M36,46.1c0.6,0,1.1-0.5,1.1-1.1c0-0.6-0.5-1.1-1.1-1.1c-0.6,0-1.1,0.5-1.1,1.1
					C34.9,45.6,35.4,46.1,36,46.1z M36,43.5c0.6,0,1-0.5,1-1c0-0.6-0.5-1-1-1c-0.6,0-1,0.5-1,1C34.9,43,35.4,43.5,36,43.5z M36,40.9
					c0.5,0,1-0.4,1-1c0-0.5-0.4-1-1-1c-0.5,0-1,0.4-1,1C35,40.4,35.4,40.9,36,40.9z M36,38.2c0.5,0,0.9-0.4,0.9-0.9
					c0-0.5-0.4-0.9-0.9-0.9c-0.5,0-0.9,0.4-0.9,0.9C35,37.8,35.5,38.2,36,38.2z M39.7,64.3c0.4-0.2,0.8-0.7,0.8-1.3
					c0-0.6-0.4-1.1-0.9-1.3c0.5-0.2,0.8-0.7,0.8-1.3c0-0.6-0.4-1.1-1-1.3c0.5-0.2,0.9-0.7,0.9-1.3c0-0.7-0.5-1.2-1.1-1.3
					c0.6-0.1,1.1-0.6,1.1-1.3c0-0.7-0.6-1.3-1.3-1.3c-0.7,0-1.3,0.6-1.3,1.3c0,0.6,0.5,1.2,1.1,1.3c-0.6,0.1-1.1,0.7-1.1,1.3
					c0,0.6,0.4,1.1,0.9,1.3c-0.6,0.2-1,0.7-1,1.3c0,0.6,0.3,1,0.8,1.3c-0.5,0.2-0.9,0.7-0.9,1.3c0,0.5,0.3,1,0.8,1.3
					c-0.5,0.3-0.8,0.7-0.8,1.3c0-0.6-0.3-1.1-0.8-1.3c0.4-0.2,0.8-0.7,0.8-1.3c0-0.6-0.4-1.1-0.9-1.3c0.5-0.2,0.8-0.7,0.8-1.3
					c0-0.6-0.4-1.1-1-1.3c0.5-0.2,0.9-0.7,0.9-1.3c0-0.7-0.5-1.2-1.1-1.3c0.6-0.1,1.1-0.6,1.1-1.3c0-0.7-0.6-1.3-1.3-1.3
					c-0.7,0-1.3,0.6-1.3,1.3c0,0.6,0.5,1.2,1.1,1.3c-0.6,0.1-1.1,0.7-1.1,1.3c0,0.6,0.4,1.1,0.9,1.3c-0.6,0.2-1,0.7-1,1.3
					c0,0.6,0.3,1,0.8,1.3c-0.5,0.2-0.9,0.7-0.9,1.3c0,0.5,0.3,1,0.8,1.3c-0.5,0.3-0.8,0.7-0.8,1.3c0-0.6-0.3-1.1-0.8-1.3
					c0.4-0.2,0.8-0.7,0.8-1.3c0-0.6-0.4-1.1-0.9-1.3c0.5-0.2,0.8-0.7,0.8-1.3c0-0.6-0.4-1.1-1-1.3c0.5-0.2,0.9-0.7,0.9-1.3
					c0-0.7-0.5-1.2-1.1-1.3c0.6-0.1,1.1-0.6,1.1-1.3c0-0.7-0.6-1.3-1.3-1.3c-0.7,0-1.3,0.6-1.3,1.3c0,0.6,0.5,1.2,1.1,1.3
					c-0.6,0.1-1.1,0.7-1.1,1.3c0,0.6,0.4,1.1,0.9,1.3c-0.6,0.2-1,0.7-1,1.3c0,0.6,0.3,1,0.8,1.3c-0.5,0.2-0.9,0.7-0.9,1.3
					c0,0.5,0.3,1,0.8,1.3c-0.5,0.3-0.8,0.7-0.8,1.3c0,0.8,0.7,1.5,1.5,1.5c0.8,0,1.5-0.7,1.5-1.5c0,0.8,0.7,1.5,1.5,1.5
					c0.8,0,1.5-0.7,1.5-1.5c0,0.8,0.7,1.5,1.5,1.5c0.8,0,1.5-0.7,1.5-1.5C40.6,65.1,40.2,64.6,39.7,64.3z M39,54
					c0.7,0,1.3-0.6,1.3-1.2c0-0.7-0.6-1.2-1.3-1.2c-0.7,0-1.3,0.6-1.3,1.2C37.8,53.5,38.3,54,39,54z M39,51.4c0.7,0,1.2-0.5,1.2-1.2
					c0-0.7-0.5-1.2-1.2-1.2c-0.7,0-1.2,0.5-1.2,1.2C37.8,50.9,38.4,51.4,39,51.4z M39,48.8c0.6,0,1.1-0.5,1.1-1.1
					c0-0.6-0.5-1.1-1.1-1.1c-0.6,0-1.2,0.5-1.2,1.1C37.9,48.3,38.4,48.8,39,48.8z M39,46.1c0.6,0,1.1-0.5,1.1-1.1
					c0-0.6-0.5-1.1-1.1-1.1c-0.6,0-1.1,0.5-1.1,1.1C37.9,45.6,38.4,46.1,39,46.1z M39,43.5c0.6,0,1-0.5,1-1c0-0.6-0.5-1-1-1
					c-0.6,0-1,0.5-1,1C38,43,38.5,43.5,39,43.5z M39,40.9c0.5,0,1-0.4,1-1c0-0.5-0.4-1-1-1c-0.5,0-1,0.4-1,1
					C38,40.4,38.5,40.9,39,40.9z M39,38.2c0.5,0,0.9-0.4,0.9-0.9c0-0.5-0.4-0.9-0.9-0.9c-0.5,0-0.9,0.4-0.9,0.9
					C38.1,37.8,38.5,38.2,39,38.2z M39,35.6c0.5,0,0.9-0.4,0.9-0.9c0-0.5-0.4-0.9-0.9-0.9c-0.5,0-0.9,0.4-0.9,0.9
					C38.1,35.2,38.5,35.6,39,35.6z M39,33c0.5,0,0.8-0.4,0.8-0.8c0-0.4-0.4-0.8-0.8-0.8c-0.5,0-0.8,0.4-0.8,0.8
					C38.2,32.6,38.6,33,39,33z M39,30.4c0.4,0,0.8-0.3,0.8-0.8c0-0.4-0.3-0.8-0.8-0.8c-0.4,0-0.8,0.3-0.8,0.8
					C38.3,30,38.6,30.4,39,30.4z M42.8,64.3c0.4-0.2,0.8-0.7,0.8-1.3c0-0.6-0.4-1.1-0.9-1.3c0.5-0.2,0.8-0.7,0.8-1.3
					c0-0.6-0.4-1.1-1-1.3c0.5-0.2,0.9-0.7,0.9-1.3c0-0.7-0.5-1.2-1.1-1.3c0.6-0.1,1.1-0.6,1.1-1.3c0-0.7-0.6-1.3-1.3-1.3
					s-1.3,0.6-1.3,1.3c0,0.6,0.5,1.2,1.1,1.3c-0.6,0.1-1.1,0.7-1.1,1.3c0,0.6,0.4,1.1,0.9,1.3c-0.6,0.2-1,0.7-1,1.3
					c0,0.6,0.3,1,0.8,1.3c-0.5,0.2-0.9,0.7-0.9,1.3c0,0.5,0.3,1,0.8,1.3c-0.5,0.3-0.8,0.7-0.8,1.3c0,0.8,0.7,1.5,1.5,1.5
					c0.8,0,1.5-0.7,1.5-1.5C43.6,65.1,43.3,64.6,42.8,64.3z M42.1,54c0.7,0,1.3-0.6,1.3-1.2c0-0.7-0.6-1.2-1.3-1.2s-1.3,0.6-1.3,1.2
					C40.8,53.5,41.4,54,42.1,54z M42.1,51.4c0.7,0,1.2-0.5,1.2-1.2c0-0.7-0.5-1.2-1.2-1.2c-0.7,0-1.2,0.5-1.2,1.2
					C40.9,50.9,41.4,51.4,42.1,51.4z M42.1,48.8c0.6,0,1.1-0.5,1.1-1.1c0-0.6-0.5-1.1-1.1-1.1c-0.6,0-1.1,0.5-1.1,1.1
					C40.9,48.3,41.4,48.8,42.1,48.8z M42.1,46.1c0.6,0,1.1-0.5,1.1-1.1c0-0.6-0.5-1.1-1.1-1.1c-0.6,0-1.1,0.5-1.1,1.1
					C41,45.6,41.5,46.1,42.1,46.1z M42.1,43.5c0.6,0,1-0.5,1-1c0-0.6-0.5-1-1-1c-0.6,0-1,0.5-1,1C41,43,41.5,43.5,42.1,43.5z
					 M42.1,40.9c0.5,0,1-0.4,1-1c0-0.5-0.4-1-1-1c-0.5,0-1,0.4-1,1C41.1,40.4,41.5,40.9,42.1,40.9z M42.1,38.2
					c0.5,0,0.9-0.4,0.9-0.9c0-0.5-0.4-0.9-0.9-0.9c-0.5,0-0.9,0.4-0.9,0.9C41.2,37.8,41.6,38.2,42.1,38.2z M42.1,35.6
					c0.5,0,0.9-0.4,0.9-0.9c0-0.5-0.4-0.9-0.9-0.9c-0.5,0-0.9,0.4-0.9,0.9C41.2,35.2,41.6,35.6,42.1,35.6z M42.1,33
					c0.5,0,0.8-0.4,0.8-0.8c0-0.4-0.4-0.8-0.8-0.8c-0.5,0-0.8,0.4-0.8,0.8C41.3,32.6,41.6,33,42.1,33z M42.1,30.4
					c0.4,0,0.8-0.3,0.8-0.8c0-0.4-0.3-0.8-0.8-0.8c-0.4,0-0.8,0.3-0.8,0.8C41.3,30,41.7,30.4,42.1,30.4z M15.3,64.3
					c0.4-0.2,0.8-0.7,0.8-1.3c0-0.6-0.4-1.1-0.9-1.3c0.5-0.2,0.8-0.7,0.8-1.3c0-0.6-0.4-1.1-1-1.3c0.5-0.2,0.9-0.7,0.9-1.3
					c0-0.7-0.5-1.2-1.1-1.3c0.6-0.1,1.1-0.6,1.1-1.3c0-0.7-0.6-1.3-1.3-1.3c-0.7,0-1.3,0.6-1.3,1.3c0,0.6,0.5,1.2,1.1,1.3
					c-0.6,0.1-1.1,0.7-1.1,1.3c0,0.6,0.4,1.1,0.9,1.3c-0.6,0.2-1,0.7-1,1.3c0,0.6,0.3,1,0.8,1.3c-0.5,0.2-0.9,0.7-0.9,1.3
					c0,0.5,0.3,1,0.8,1.3c-0.5,0.3-0.8,0.7-0.8,1.3c0,0.8,0.7,1.5,1.5,1.5c0.8,0,1.5-0.7,1.5-1.5C16.1,65.1,15.8,64.6,15.3,64.3z"/>
			</g>
			<g>
				<path fill="#231F20" d="M11.1,75.3c-0.1-0.2-0.3-0.4-0.6-0.6c-0.3-0.2-0.7-0.4-1.4-0.7c-0.8-0.3-1.3-0.6-1.5-0.8
					c-0.2-0.2-0.3-0.4-0.3-0.6c0-0.3,0.1-0.5,0.4-0.7c0.3-0.2,0.6-0.3,1.1-0.3c0.4,0,0.8,0.1,1.1,0.3c0.3,0.2,0.6,0.5,0.7,0.9
					c0,0,0,0.1,0.1,0.1c0,0,0.1,0,0.1-0.1v0l0.1-1.1c-0.2-0.1-0.5-0.3-0.8-0.3c-0.3-0.1-0.6-0.1-1.1-0.1c-0.7,0-1.3,0.2-1.8,0.5
					c-0.4,0.3-0.7,0.7-0.7,1.2c0,0.3,0.1,0.5,0.2,0.7c0.2,0.2,0.4,0.5,0.8,0.7c0.2,0.1,0.6,0.3,1.3,0.6l0,0c0.7,0.3,1.1,0.6,1.4,0.8
					c0.2,0.2,0.3,0.4,0.3,0.7c0,0.2-0.1,0.4-0.2,0.6c-0.1,0.2-0.3,0.3-0.6,0.5c-0.3,0.1-0.5,0.2-0.8,0.2c-0.5,0-0.9-0.2-1.3-0.5
					c-0.4-0.3-0.6-0.6-0.7-1c0,0,0-0.1,0-0.1C6.8,76,6.7,76,6.6,76c-0.1,0-0.1,0.1-0.1,0.1c0,0-0.1,1.3-0.1,1.3c0,0.1,0,0.1,0.1,0.2
					c0.1,0.1,0.2,0.1,0.5,0.2C7.5,77.9,8,78,8.6,78c0.6,0,1.1-0.1,1.5-0.2c0.4-0.2,0.7-0.4,0.9-0.7c0.2-0.3,0.3-0.6,0.3-1
					C11.3,75.7,11.2,75.5,11.1,75.3z"/>
				<path fill="#231F20" d="M28.3,74.1c0.8-0.3,1.3-0.7,1.3-1.3c0-0.8-1.2-1.5-2.6-1.5l0,0c-0.5,0-1.1,0-1.3,0c-0.6,0-1,0-1.4,0.1
					l-0.4,0l0,0c-0.1,0-0.1,0-0.1,0.1c0,0.1,0,0.1,0.1,0.1l0,0l0.7,0.1v0c0.2,0,0.2,0.2,0.2,0.3v0v5.1v0c0,0.2-0.1,0.3-0.3,0.3v0
					l-0.6,0.1l0,0c-0.1,0-0.1,0.1-0.1,0.1c0,0.1,0.1,0.1,0.2,0.1h0h3.5l0,0c1.6,0,2.9-0.9,2.9-1.9C30.3,75.1,29.4,74.4,28.3,74.1z
					 M26.8,71.6c0.4,0,0.8,0.1,1.1,0.2c0.1,0,1.2,0.5,0.5,1.7c0,0-0.4,0.7-1.8,0.7c-0.2,0-0.5,0-0.7-0.1l0-2.4
					C25.9,71.7,26.3,71.6,26.8,71.6z M28.9,76.9c0,0-0.5,0.6-1.7,0.6c0,0,0,0-0.1,0c-0.3,0-1.3-0.1-1.3-0.7v-2.3
					c0.1,0,0.6-0.1,1-0.1c0.7,0,1.3,0.1,1.7,0.3c0,0,0.4,0.2,0.6,0.6C29.4,75.9,29.3,76.4,28.9,76.9z"/>
				<path fill="#231F20" d="M40.9,77.7L40.9,77.7l-0.6-0.1l0,0c-0.2,0-0.3-0.2-0.3-0.3v0V72v0c0-0.2,0.1-0.3,0.3-0.3l0,0l0.6-0.1v0
					c0.1,0,0.1-0.1,0.1-0.1s-0.1-0.1-0.2-0.1h0H40l0,0h-1l0,0h-0.9h0c-0.1,0-0.1,0-0.2,0.1s0,0.1,0.1,0.1l0,0l0.6,0.1l0,0
					c0.2,0,0.3,0.2,0.3,0.3v0l0,2.4h-4.3V72c0-0.1,0.1-0.3,0.3-0.3v0l0.6-0.1v0c0.1,0,0.1-0.1,0.1-0.1c0-0.1-0.1-0.1-0.2-0.1h0
					l-0.9,0v0h-1v0l-0.9,0l0,0c-0.1,0-0.1,0-0.2,0.1c0,0.1,0,0.1,0.1,0.1v0l0.6,0.1v0c0.2,0,0.3,0.1,0.3,0.3v5.3
					c0,0.1-0.2,0.3-0.3,0.3v0l-0.6,0.1v0c-0.1,0-0.1,0.1-0.1,0.1c0,0.1,0.1,0.1,0.2,0.1h0h0.9l0,0h1v0l0.9,0h0c0.1,0,0.1,0,0.2-0.1
					c0-0.1,0-0.1-0.1-0.1v0L35,77.5v0c-0.2,0-0.3-0.1-0.3-0.3v-2.4h4.3l0,2.4v0c0,0.2-0.1,0.3-0.3,0.3l0,0L38,77.7l0,0
					c-0.1,0-0.1,0.1-0.1,0.1c0,0.1,0.1,0.1,0.2,0.1h0h0.9v0l1,0v0l0.9,0h0c0.1,0,0.1,0,0.2-0.1C41,77.7,40.9,77.7,40.9,77.7z"/>
				<path fill="#231F20" d="M50.2,77.7L50.2,77.7l-0.4-0.1l0,0c-0.2,0-0.4-0.2-0.4-0.3v0l-2.7-5.9h-0.3l-2.7,5.9l0,0
					c-0.1,0.2-0.2,0.3-0.4,0.3l0,0l-0.4,0.1v0c-0.1,0-0.1,0.1-0.1,0.1c0,0.1,0.1,0.1,0.2,0.1h2h0c0.1,0,0.1,0,0.2-0.1
					c0-0.1,0-0.1-0.1-0.1v0l-0.5-0.1v0c-0.1,0-0.2-0.1-0.2-0.1c0-0.1,0-0.1,0-0.2l0,0v0l0.9-1.9h2.5l0.8,1.8l0,0
					c0.1,0.2-0.1,0.4-0.3,0.4l-0.6,0.1v0c-0.1,0-0.1,0.1-0.1,0.1c0,0.1,0.1,0.1,0.2,0.1h0h2.6c0.1,0,0.1,0,0.2-0.1
					C50.3,77.7,50.3,77.7,50.2,77.7z M45.3,74.9l1-2.3l1,2.3H45.3z"/>
				<g>
					<path fill="#231F20" d="M21.6,74.5c0-0.4-0.1-0.8-0.2-1.2c-0.1-0.3-0.3-0.5-0.5-0.8c-0.3-0.4-0.6-0.6-0.9-0.8
						c-0.3-0.2-0.7-0.3-1-0.4c-0.4-0.1-0.8-0.1-1.2-0.1c-0.1,0-0.1,0-0.2,0c-0.1,0-0.1,0-0.2,0c-0.4,0-0.8,0-1.2,0.1
						c-0.4,0.1-0.7,0.2-1,0.4c-0.3,0.2-0.6,0.4-0.9,0.8c-0.2,0.2-0.4,0.5-0.5,0.8c-0.1,0.4-0.2,0.8-0.2,1.2c0,0,0,0.1,0,0.1
						c0,0,0,0.1,0,0.1c0,0.4,0.1,0.8,0.2,1.2c0.1,0.3,0.3,0.5,0.5,0.8c0.3,0.4,0.6,0.6,0.9,0.8c0.3,0.2,0.7,0.3,1,0.4
						c0.4,0.1,0.8,0.1,1.2,0.1c0.1,0,0.1,0,0.2,0l0,0c0.1,0,0.1,0,0.2,0c0.4,0,0.8,0,1.2-0.1c0.4-0.1,0.7-0.2,1-0.4
						c0.3-0.2,0.6-0.4,0.9-0.8c0.2-0.2,0.4-0.5,0.5-0.8c0.1-0.4,0.2-0.8,0.2-1.2C21.6,74.7,21.6,74.6,21.6,74.5
						C21.6,74.6,21.6,74.6,21.6,74.5z M20.5,74.6c0,0.4-0.1,0.9-0.2,1.3c-0.1,0.3-0.3,0.6-0.6,0.9c-0.3,0.3-0.6,0.5-1,0.6
						c-0.4,0.1-0.8,0.2-1.2,0.2c0,0,0,0,0,0c0,0,0,0,0,0c-0.4,0-0.8-0.1-1.2-0.2c-0.4-0.1-0.7-0.3-1-0.6c-0.3-0.3-0.5-0.6-0.6-0.9
						c-0.2-0.4-0.2-0.9-0.2-1.3c0,0,0,0,0,0l0,0c0,0,0,0,0,0c0-0.4,0.1-0.9,0.2-1.3c0.1-0.3,0.3-0.6,0.6-0.9c0.3-0.3,0.6-0.5,1-0.6
						c0.4-0.1,0.8-0.2,1.2-0.2c0,0,0,0,0,0c0,0,0,0,0,0c0.4,0,0.8,0.1,1.2,0.2c0.4,0.1,0.7,0.3,1,0.6c0.3,0.3,0.5,0.6,0.6,0.9
						C20.5,73.7,20.5,74.2,20.5,74.6C20.5,74.6,20.5,74.6,20.5,74.6L20.5,74.6C20.5,74.6,20.5,74.6,20.5,74.6z"/>
				</g>
			</g>
		</g>
	</g>
</g>
</svg>
