<?xml version="1.0" encoding="UTF-8" standalone="no"?><!-- Generator: Gravit.io --><svg xmlns="http://www.w3.org/2000/svg" xmlns:xlink="http://www.w3.org/1999/xlink" style="isolation:isolate" viewBox="263.631 365.03 74.703 74.7" width="74.703pt" height="74.7pt"><g><path d=" M 337.906 393.47 L 335.999 391.563 L 335.999 376.177 C 335.999 370.031 330.998 365.03 324.851 365.03 C 322.322 365.03 319.988 365.878 318.116 367.302 C 309.862 363.25 299.588 364.651 292.733 371.506 C 285.392 378.847 284.307 390.11 289.475 398.612 L 281.116 406.972 L 277.585 406.972 C 276.779 406.972 276.126 407.625 276.126 408.431 L 276.126 411.107 L 273.449 411.107 C 272.643 411.107 271.99 411.76 271.99 412.566 L 271.99 415.243 L 269.313 415.243 C 268.508 415.243 267.854 415.896 267.854 416.702 L 267.854 419.379 L 265.178 419.379 C 264.791 419.379 264.42 419.533 264.146 419.806 L 264.058 419.894 C 263.784 420.168 263.631 420.539 263.631 420.926 L 263.631 430.393 C 263.631 431.199 264.284 431.852 265.09 431.852 L 274.733 431.852 C 275.12 431.852 275.491 431.698 275.765 431.424 L 291.859 415.33 C 292.429 414.76 292.429 413.836 291.859 413.267 C 291.289 412.697 290.366 412.697 289.796 413.267 L 274.129 428.934 L 266.549 428.934 L 266.549 422.296 L 269.314 422.296 C 270.119 422.296 270.773 421.643 270.773 420.837 L 270.773 418.161 L 273.449 418.161 C 274.255 418.161 274.908 417.507 274.908 416.702 L 274.908 414.025 L 277.585 414.025 C 278.391 414.025 279.044 413.372 279.044 412.566 L 279.044 409.889 L 281.721 409.889 C 282.108 409.889 282.479 409.735 282.753 409.462 L 291.181 401.034 C 291.663 401.629 292.18 402.205 292.734 402.758 C 296.681 406.706 301.859 408.974 307.403 409.209 L 307.403 433.602 C 307.403 436.981 310.152 439.73 313.531 439.73 L 332.206 439.73 C 335.585 439.73 338.334 436.981 338.334 433.602 L 338.334 394.501 C 338.333 394.115 338.179 393.743 337.906 393.47 Z  M 324.851 367.948 C 329.389 367.948 333.081 371.64 333.081 376.177 L 333.081 388.645 L 330.457 386.021 C 330.444 386.008 330.43 385.997 330.417 385.985 C 330.146 380.714 328.002 375.523 323.985 371.505 C 323.026 370.546 321.999 369.694 320.921 368.949 C 322.089 368.311 323.429 367.948 324.851 367.948 Z  M 316.621 380.322 L 316.621 377.101 C 317.001 377.272 317.359 377.509 317.67 377.821 C 318.338 378.489 318.706 379.377 318.706 380.322 C 318.706 381.266 318.338 382.155 317.67 382.823 C 316.291 384.202 314.048 384.202 312.668 382.823 C 311.289 381.444 311.289 379.2 312.668 377.821 C 312.976 377.513 313.329 377.278 313.703 377.107 L 313.703 380.322 C 313.703 381.128 314.357 381.781 315.163 381.781 C 315.968 381.781 316.621 381.127 316.621 380.322 Z  M 308.359 406.304 C 303.448 406.303 298.535 404.434 294.796 400.695 C 287.318 393.216 287.318 381.048 294.796 373.569 C 298.419 369.946 303.236 367.951 308.359 367.951 C 311.006 367.951 313.57 368.485 315.931 369.499 C 314.951 370.805 314.251 372.332 313.92 373.991 C 312.704 374.229 311.545 374.818 310.605 375.757 C 308.088 378.274 308.088 382.369 310.605 384.886 C 311.864 386.144 313.516 386.773 315.169 386.773 C 316.822 386.773 318.475 386.144 319.734 384.886 C 320.953 383.667 321.624 382.046 321.624 380.322 C 321.624 378.597 320.953 376.976 319.734 375.757 C 318.915 374.939 317.93 374.389 316.887 374.103 C 317.2 372.9 317.78 371.804 318.559 370.881 C 319.763 371.64 320.891 372.538 321.922 373.569 C 325.544 377.192 327.54 382.009 327.54 387.132 C 327.54 392.256 325.544 397.072 321.922 400.695 C 318.182 404.435 313.271 406.304 308.359 406.304 Z  M 335.415 433.603 C 335.415 435.373 333.975 436.813 332.205 436.813 L 313.53 436.813 C 311.76 436.813 310.32 435.373 310.32 433.603 L 310.32 409.144 C 315.483 408.693 320.277 406.466 323.985 402.758 C 327.575 399.169 329.668 394.641 330.266 389.957 L 335.415 395.106 L 335.415 433.603 Z " fill="rgb(47,72,88)"/><path d=" M 300.93 379.703 C 301.5 379.134 301.5 378.21 300.93 377.64 C 300.36 377.07 299.437 377.07 298.867 377.64 C 293.633 382.874 293.633 391.39 298.867 396.624 C 299.152 396.909 299.525 397.052 299.898 397.052 C 300.272 397.052 300.645 396.909 300.93 396.624 C 301.5 396.054 301.5 395.131 300.93 394.561 C 296.834 390.465 296.834 383.8 300.93 379.703 Z " fill="rgb(47,72,88)"/><path d=" M 305.569 397.275 C 305.564 397.274 305.548 397.269 305.544 397.268 C 304.768 397.054 303.967 397.51 303.753 398.286 C 303.538 399.062 303.994 399.866 304.77 400.082 C 304.903 400.12 305.037 400.138 305.169 400.138 C 305.804 400.138 306.388 399.72 306.571 399.079 C 306.792 398.304 306.344 397.497 305.569 397.275 Z " fill="rgb(47,72,88)"/><path d=" M 329.068 428.934 L 316.667 428.934 C 315.861 428.934 315.208 429.587 315.208 430.393 C 315.208 431.199 315.861 431.852 316.667 431.852 L 329.068 431.852 C 329.874 431.852 330.527 431.199 330.527 430.393 C 330.527 429.587 329.874 428.934 329.068 428.934 Z " fill="rgb(47,72,88)"/><path d=" M 295.6 409.525 C 295.329 409.254 294.953 409.097 294.569 409.097 C 294.185 409.097 293.809 409.254 293.537 409.525 C 293.266 409.796 293.11 410.173 293.11 410.556 C 293.11 410.94 293.266 411.317 293.537 411.588 C 293.809 411.859 294.185 412.016 294.569 412.016 C 294.954 412.016 295.329 411.859 295.6 411.588 C 295.873 411.317 296.028 410.94 296.028 410.556 C 296.028 410.173 295.873 409.796 295.6 409.525 Z " fill="rgb(47,72,88)"/></g></svg>