<?xml version="1.0" encoding="UTF-8" standalone="no"?>
<svg width="78px" height="110px" viewBox="0 0 78 110" version="1.1" xmlns="http://www.w3.org/2000/svg" xmlns:xlink="http://www.w3.org/1999/xlink">
    <!-- Generator: Sketch 48.2 (47327) - http://www.bohemiancoding.com/sketch -->
    <title>logo</title>
    <desc>Created with Sketch.</desc>
    <defs></defs>
    <g id="Footer" stroke="none" stroke-width="1" fill="none" fill-rule="evenodd" transform="translate(0.000000, -41.000000)">
        <g id="logo-copy-2" transform="translate(0.000000, 41.000000)" fill="#003255">
            <path d="M55.1819014,20.726102 C55.5684498,20.726102 55.9144344,20.4740215 56.0337395,20.1043033 L57.8280875,14.544126 L59.6224355,20.1043033 C59.7417405,20.4740215 60.0877252,20.726102 60.4742735,20.726102 L66.2844296,20.726102 L61.5838105,24.1616002 C61.2712313,24.3896731 61.1399957,24.7978035 61.2593008,25.1675217 L63.0536488,30.727699 L58.3530297,27.2922009 C58.0404505,27.0617272 57.6133384,27.0617272 57.3007591,27.2922009 L52.6025261,30.727699 L54.3968741,25.1675217 C54.5161792,24.7978035 54.3849436,24.3896731 54.0723644,24.1616002 L49.3717453,20.726102 L55.1819014,20.726102 Z M46.0932425,20.5532468 L52.4951516,25.2347432 L50.049398,32.8067636 C49.930093,33.1764818 50.0613285,33.5846123 50.3739078,33.8126852 C50.686487,34.0407581 51.1135991,34.0407581 51.4261783,33.8126852 L57.8280875,29.1335895 L64.2299966,33.8126852 C64.5425758,34.0407581 64.9696879,34.0407581 65.2822672,33.8126852 C65.5948464,33.5846123 65.726082,33.1764818 65.6067769,32.8067636 L63.1610233,25.2347432 L69.5629325,20.5532468 C69.8755117,20.3251739 70.0067473,19.9170434 69.8874422,19.5473252 C69.7681372,19.1776071 69.4245386,18.9255265 69.0379902,18.9255265 L61.123293,18.9255265 L58.6799255,11.3535061 C58.5582344,10.9837879 58.2146358,10.7317073 57.8280875,10.7317073 C57.4415391,10.7317073 57.0955544,10.9837879 56.9762494,11.3535061 L54.5304958,18.9255265 L46.6181847,18.9255265 C46.2316363,18.9255265 45.8880378,19.1776071 45.7687327,19.5473252 C45.6470416,19.9170434 45.7806632,20.3251739 46.0932425,20.5532468 L46.0932425,20.5532468 Z" id="Fill-1"></path>
            <path d="M11.6551724,7.21687749 C14.0952355,7.22181355 16.0700533,9.19130291 16.0750027,11.6247822 C16.0700533,14.0607296 14.0952355,16.030219 11.6551724,16.035155 C9.21510932,16.030219 7.24029153,14.0607296 7.23534211,11.6247822 C7.24029153,9.19130291 9.21510932,7.22181355 11.6551724,7.21687749 M11.6551724,17.8861789 C15.1222397,17.8837108 17.9310345,15.0824948 17.9310345,11.6247822 C17.9310345,8.16706973 15.1222397,5.36585366 11.6551724,5.36585366 C8.18810508,5.36585366 5.37931034,8.16706973 5.37931034,11.6247822 C5.37931034,15.0824948 8.18810508,17.8837108 11.6551724,17.8861789" id="Fill-3"></path>
            <path d="M75.4549885,70.9523913 L75.4549885,71.036087 C75.4549885,81.3067391 71.3308506,90.5945652 64.6652874,97.3236957 C62.5326897,99.471087 60.1203678,101.324348 57.523954,102.895435 C55.0446897,95.1786957 47.9965977,89.5304348 39.5618391,89.1119565 L39.5618391,72.1121739 C42.622069,72.0882609 45.6273103,72.0643478 48.4771494,72.0404348 C48.9696552,77.3228261 53.363954,81.4741304 58.7743448,81.4741304 C64.5146667,81.4741304 69.1671724,76.8206522 69.1695632,71.0791304 L69.1193563,71.0791304 C69.1552184,70.808913 69.1026207,70.5315217 68.9041839,70.3330435 L39.5618391,40.8984783 L39.5618391,1.81978261 L75.4549885,1.81978261 L75.4549885,70.9523913 Z M1.9234023,73.6378261 L36.3701149,108.091739 C27.1033563,107.525 18.7522759,103.54587 12.584,97.3236957 C6.48744828,91.1684783 2.55696552,82.8658696 1.9234023,73.6378261 L1.9234023,73.6378261 Z M37.7687356,1.81978261 L37.7687356,10.8445652 L27.9257931,10.8206522 C27.6843218,10.8206522 27.450023,10.9163043 27.2802759,11.0908696 L16.4857931,22.1913043 C16.3232184,22.3586957 16.2323678,22.5834783 16.2323678,22.8178261 L16.2371494,31.0128261 L6.98951724,22.0358696 C6.82216092,21.8732609 6.59742529,21.7823913 6.36551724,21.7823913 L1.79190805,21.7823913 L1.79190805,1.81978261 L37.7687356,1.81978261 Z M39.5618391,51.3221739 L39.5618391,43.4404348 L47.4204138,51.3221739 L39.5618391,51.3221739 Z M37.7687356,89.0928261 L20.6362299,89.0928261 L20.6362299,72.2293478 C25.9796782,72.2078261 31.928,72.1695652 37.7687356,72.1265217 L37.7687356,89.0928261 Z M39.5618391,90.946087 C47.3367356,91.3741304 53.7823448,96.6636957 55.9149425,103.849565 C51.0185747,106.482391 45.4623448,108.008043 39.5618391,108.158696 L39.5618391,90.946087 Z M37.7687356,106.95587 L21.7049195,90.8863043 L37.7687356,90.8863043 L37.7687356,106.95587 Z M18.8431264,72.2341304 L18.8431264,88.0263043 L3.10685057,72.2843478 C6.08818391,72.2771739 11.9074023,72.2604348 18.8431264,72.2341304 L18.8431264,72.2341304 Z M1.79190805,32.4930435 L1.79190805,23.5758696 L6.00211494,23.5758696 L15.1875862,32.4930435 L1.79190805,32.4930435 Z M16.2395402,34.2865217 L16.241931,39.985 C9.47834483,44.825 4.32137931,51.7669565 1.79190805,59.8878261 L1.79190805,34.2865217 L16.2395402,34.2865217 Z M37.7687356,32.8063043 C34.6774253,32.8780435 31.6865287,33.3228261 28.8151724,34.0784783 L28.8151724,12.6165217 L37.7687356,12.6380435 L37.7687356,32.8063043 Z M36.3964138,34.6691304 L1.95926437,69.1134783 C2.52827586,59.8519565 6.46832184,51.5086957 12.6294253,45.343913 C18.7929195,39.1791304 27.1344368,35.2358696 36.3964138,34.6691304 L36.3964138,34.6691304 Z M19.7731494,70.4382609 C14.4775172,70.4573913 9.77002299,70.4717391 6.38703448,70.4813043 C5.08404598,70.486087 3.98427586,70.4884783 3.11641379,70.4908696 L20.0528736,53.5508696 L36.8363218,70.3402174 C30.9836322,70.3832609 25.0544368,70.4191304 19.7731494,70.4382609 L19.7731494,70.4382609 Z M37.7687356,52.0204348 C37.7543908,52.0873913 37.7304828,52.1495652 37.7304828,52.218913 C37.7304828,52.3552174 37.763954,52.4795652 37.7687356,52.6134783 L37.7687356,68.7356522 L21.3223908,52.2834783 L37.7687356,35.8313043 L37.7687356,52.0204348 Z M48.4675862,61.9730435 C46.1126437,61.7578261 43.9872184,60.7630435 42.4045057,59.18 C40.8241839,57.5969565 39.8296092,55.471087 39.612046,53.1156522 L48.4675862,53.1156522 L48.4675862,61.9730435 Z M18.0254713,23.1813043 L27.022069,13.9293478 L27.022069,34.5567391 C23.8183908,35.5706522 20.8155402,37.0126087 18.0350345,38.7773913 L18.0254713,23.1813043 Z M67.2951724,71.8682609 C66.883954,76.2419565 63.2547126,79.6734783 58.7743448,79.6806522 C54.3489655,79.6734783 50.7531954,76.3232609 50.2702529,72.0236957 C58.3224828,71.9543478 64.8517701,71.8897826 67.2951724,71.8682609 L67.2951724,71.8682609 Z M39.5618391,70.3186957 L39.5618391,58.441087 C41.6274943,61.6884783 45.2328276,63.8573913 49.3641379,63.8573913 C49.6056092,63.8573913 49.8303448,63.7641304 50.000092,63.5943478 C50.1674483,63.4245652 50.2606897,63.1997826 50.2606897,62.9606522 L50.2606897,54.1726087 L66.1236782,70.0867391 C61.6504828,70.125 50.9755402,70.2302174 39.5618391,70.3186957 L39.5618391,70.3186957 Z M76.9851034,0.289347826 C76.8177471,0.121956522 76.5882299,0.0263043478 76.3515402,0.0263043478 L0.897747126,0.0263043478 C0.661057471,0.0263043478 0.429149425,0.121956522 0.261793103,0.289347826 C0.0944367816,0.45673913 0.0011954023,0.688695652 0.0011954023,0.923043478 L0.0011954023,70.9523913 L0.0011954023,71.036087 C-0.0011954023,81.7921739 4.32137931,91.5367391 11.3097011,98.5863043 C18.2956322,105.63587 27.9592644,110 38.6246437,110 C49.290023,110 58.9512644,105.63587 65.9371954,98.5863043 C72.9255172,91.5367391 77.248092,81.7921739 77.248092,71.036087 L77.248092,70.9523913 L77.248092,0.923043478 C77.248092,0.688695652 77.1524598,0.45673913 76.9851034,0.289347826 L76.9851034,0.289347826 Z" id="Fill-5"></path>
        </g>
    </g>
</svg>